G04*
G04 #@! TF.GenerationSoftware,Altium Limited,Altium Designer,22.2.1 (43)*
G04*
G04 Layer_Color=32896*
%FSLAX25Y25*%
%MOIN*%
G70*
G04*
G04 #@! TF.SameCoordinates,FD089562-881E-4EE4-B05D-B5CD34326894*
G04*
G04*
G04 #@! TF.FilePolarity,Positive*
G04*
G01*
G75*
G36*
X94676Y18616D02*
X94737Y18611D01*
X94796Y18602D01*
X94848Y18591D01*
X94901Y18577D01*
X94948Y18564D01*
X94989Y18547D01*
X95031Y18530D01*
X95067Y18514D01*
X95098Y18497D01*
X95125Y18483D01*
X95147Y18469D01*
X95164Y18458D01*
X95178Y18450D01*
X95186Y18444D01*
X95189Y18442D01*
X95230Y18406D01*
X95266Y18367D01*
X95300Y18323D01*
X95327Y18275D01*
X95352Y18228D01*
X95375Y18179D01*
X95394Y18132D01*
X95411Y18084D01*
X95424Y18040D01*
X95435Y17999D01*
X95444Y17960D01*
X95449Y17927D01*
X95455Y17899D01*
X95458Y17877D01*
X95460Y17866D01*
Y17860D01*
X94973Y17813D01*
X94970Y17852D01*
X94964Y17888D01*
X94951Y17951D01*
X94934Y18004D01*
X94917Y18046D01*
X94898Y18079D01*
X94884Y18101D01*
X94873Y18112D01*
X94870Y18118D01*
X94834Y18148D01*
X94793Y18173D01*
X94751Y18190D01*
X94713Y18201D01*
X94676Y18206D01*
X94649Y18212D01*
X94624D01*
X94568Y18209D01*
X94521Y18198D01*
X94480Y18184D01*
X94444Y18168D01*
X94416Y18151D01*
X94397Y18137D01*
X94383Y18126D01*
X94380Y18123D01*
X94350Y18087D01*
X94327Y18046D01*
X94314Y18004D01*
X94302Y17965D01*
X94297Y17927D01*
X94291Y17899D01*
Y17888D01*
Y17879D01*
Y17874D01*
Y17871D01*
X94297Y17816D01*
X94308Y17760D01*
X94325Y17710D01*
X94341Y17666D01*
X94361Y17627D01*
X94377Y17597D01*
X94386Y17586D01*
X94388Y17578D01*
X94394Y17575D01*
Y17572D01*
X94411Y17550D01*
X94433Y17522D01*
X94460Y17492D01*
X94488Y17461D01*
X94555Y17392D01*
X94627Y17323D01*
X94660Y17289D01*
X94693Y17256D01*
X94721Y17229D01*
X94749Y17203D01*
X94771Y17184D01*
X94787Y17167D01*
X94798Y17156D01*
X94801Y17154D01*
X94876Y17084D01*
X94942Y17018D01*
X95006Y16954D01*
X95061Y16896D01*
X95111Y16843D01*
X95156Y16791D01*
X95197Y16747D01*
X95230Y16705D01*
X95261Y16666D01*
X95286Y16636D01*
X95308Y16605D01*
X95325Y16583D01*
X95336Y16566D01*
X95347Y16553D01*
X95350Y16544D01*
X95352Y16542D01*
X95399Y16456D01*
X95435Y16370D01*
X95466Y16287D01*
X95488Y16212D01*
X95496Y16179D01*
X95502Y16148D01*
X95507Y16120D01*
X95513Y16098D01*
X95516Y16079D01*
Y16065D01*
X95518Y16057D01*
Y16054D01*
X93801D01*
Y16508D01*
X94776D01*
X94743Y16555D01*
X94726Y16578D01*
X94713Y16600D01*
X94699Y16616D01*
X94687Y16630D01*
X94679Y16638D01*
X94676Y16641D01*
X94663Y16655D01*
X94646Y16675D01*
X94627Y16694D01*
X94604Y16716D01*
X94557Y16763D01*
X94507Y16810D01*
X94460Y16854D01*
X94438Y16874D01*
X94419Y16891D01*
X94405Y16904D01*
X94394Y16916D01*
X94386Y16921D01*
X94383Y16924D01*
X94341Y16962D01*
X94302Y16999D01*
X94266Y17035D01*
X94233Y17065D01*
X94205Y17096D01*
X94178Y17120D01*
X94156Y17145D01*
X94134Y17167D01*
X94103Y17203D01*
X94078Y17229D01*
X94067Y17245D01*
X94061Y17251D01*
X94014Y17314D01*
X93973Y17375D01*
X93940Y17431D01*
X93912Y17478D01*
X93893Y17519D01*
X93884Y17536D01*
X93876Y17550D01*
X93870Y17561D01*
X93868Y17572D01*
X93865Y17575D01*
Y17578D01*
X93843Y17636D01*
X93829Y17694D01*
X93818Y17749D01*
X93809Y17802D01*
X93804Y17843D01*
Y17863D01*
X93801Y17877D01*
Y17890D01*
Y17899D01*
Y17904D01*
Y17907D01*
X93804Y17963D01*
X93809Y18015D01*
X93821Y18065D01*
X93834Y18115D01*
X93851Y18159D01*
X93870Y18201D01*
X93890Y18239D01*
X93909Y18273D01*
X93931Y18306D01*
X93951Y18334D01*
X93970Y18359D01*
X93987Y18378D01*
X94001Y18392D01*
X94012Y18406D01*
X94017Y18411D01*
X94020Y18414D01*
X94061Y18450D01*
X94109Y18481D01*
X94156Y18508D01*
X94203Y18533D01*
X94253Y18553D01*
X94302Y18569D01*
X94350Y18583D01*
X94397Y18594D01*
X94441Y18602D01*
X94482Y18608D01*
X94519Y18613D01*
X94549Y18616D01*
X94577Y18619D01*
X94613D01*
X94676Y18616D01*
D02*
G37*
M02*
