G04*
G04 #@! TF.GenerationSoftware,Altium Limited,Altium Designer,22.2.1 (43)*
G04*
G04 Layer_Color=2752767*
%FSLAX25Y25*%
%MOIN*%
G70*
G04*
G04 #@! TF.SameCoordinates,FD089562-881E-4EE4-B05D-B5CD34326894*
G04*
G04*
G04 #@! TF.FilePolarity,Positive*
G04*
G01*
G75*
%ADD24C,0.00200*%
%ADD25C,0.00267*%
D24*
X101562Y111200D02*
Y112800D01*
X103162D01*
Y111200D01*
X101562D01*
X18885D02*
Y112800D01*
X20485D01*
Y111200D01*
X18885D01*
X94500Y75700D02*
X93700Y77300D01*
X95300D01*
X94500Y75700D01*
X108406Y23162D02*
X107606Y24761D01*
X109206D01*
X108406Y23162D01*
X105641Y20791D02*
X104841Y22391D01*
X106441D01*
X105641Y20791D01*
X13941Y21940D02*
X13141Y23540D01*
X14741D01*
X13941Y21940D01*
X25500Y47700D02*
X24700Y49300D01*
X26300D01*
X25500Y47700D01*
Y43200D02*
X24700Y44800D01*
X26300D01*
X25500Y43200D01*
Y38700D02*
X24700Y40300D01*
X26300D01*
X25500Y38700D01*
Y34200D02*
X24700Y35800D01*
X26300D01*
X25500Y34200D01*
Y29700D02*
X24700Y31300D01*
X26300D01*
X25500Y29700D01*
Y25200D02*
X24700Y26800D01*
X26300D01*
X25500Y25200D01*
X80000Y75700D02*
X79200Y77300D01*
X80800D01*
X80000Y75700D01*
X67500D02*
X66700Y77300D01*
X68300D01*
X67500Y75700D01*
X55000D02*
X54200Y77300D01*
X55800D01*
X55000Y75700D01*
X42500D02*
X41700Y77300D01*
X43300D01*
X42500Y75700D01*
X30000D02*
X29200Y77300D01*
X30800D01*
X30000Y75700D01*
X24095Y62892D02*
X23295Y64492D01*
X24895D01*
X24095Y62892D01*
X26894D02*
X26094Y64492D01*
X27694D01*
X26894Y62892D01*
X29694D02*
X28894Y64492D01*
X30494D01*
X29694Y62892D01*
Y65797D02*
X28894Y67397D01*
X30494D01*
X29694Y65797D01*
X26894D02*
X26094Y67397D01*
X27694D01*
X26894Y65797D01*
X24095D02*
X23295Y67397D01*
X24895D01*
X24095Y65797D01*
D25*
X95800Y39500D02*
G03*
X95800Y39500I-800J0D01*
G01*
Y51000D02*
G03*
X95800Y51000I-800J0D01*
G01*
X46362Y25898D02*
G03*
X46362Y25898I-800J0D01*
G01*
X17300Y44413D02*
G03*
X17300Y44413I-800J0D01*
G01*
X95300Y64500D02*
G03*
X95300Y64500I-800J0D01*
G01*
X90300D02*
G03*
X90300Y64500I-800J0D01*
G01*
X85300D02*
G03*
X85300Y64500I-800J0D01*
G01*
X80300D02*
G03*
X80300Y64500I-800J0D01*
G01*
X75300D02*
G03*
X75300Y64500I-800J0D01*
G01*
X70300D02*
G03*
X70300Y64500I-800J0D01*
G01*
X65300D02*
G03*
X65300Y64500I-800J0D01*
G01*
X60300D02*
G03*
X60300Y64500I-800J0D01*
G01*
X55300D02*
G03*
X55300Y64500I-800J0D01*
G01*
X50300D02*
G03*
X50300Y64500I-800J0D01*
G01*
X45300D02*
G03*
X45300Y64500I-800J0D01*
G01*
X40300D02*
G03*
X40300Y64500I-800J0D01*
G01*
X35300D02*
G03*
X35300Y64500I-800J0D01*
G01*
X58162Y20508D02*
G03*
X58162Y20508I-800J0D01*
G01*
X87792D02*
G03*
X87792Y20508I-800J0D01*
G01*
X81770D02*
G03*
X81770Y20508I-800J0D01*
G01*
X75884D02*
G03*
X75884Y20508I-800J0D01*
G01*
X69999D02*
G03*
X69999Y20508I-800J0D01*
G01*
X64083D02*
G03*
X64083Y20508I-800J0D01*
G01*
X52300D02*
G03*
X52300Y20508I-800J0D01*
G01*
X34275Y36921D02*
G03*
X34275Y36921I-800J0D01*
G01*
X38527Y36745D02*
G03*
X38527Y36745I-800J0D01*
G01*
X36401Y39152D02*
G03*
X36401Y39152I-800J0D01*
G01*
M02*
