M48
;Layer_Color=9474304
;FILE_FORMAT=2:5
INCH,LZ
;TYPE=PLATED
T1F00S00C0.00787
T2F00S00C0.01181
T3F00S00C0.12598
%
T01
X00165Y0044413
X0035601Y0039152
X0033475Y0036921
X0037727Y0036745
X0045562Y0025898
X00515Y0020508
X0057362
X0063283
X0069199
X0075085
X008097
X0086992
X0095Y00395
Y0051
X00945Y00645
X00895
X00845
X00795
X00745
X00695
X00645
X00595
X00545
X00495
X00445
X00395
X00345
T02
X0013941Y002274
X00255Y0026
Y00305
Y0035
Y00395
Y0044
Y00485
X0026894Y0063692
X0024095
Y0066597
X0026894
X0029694
Y0063692
X003Y00765
X00425
X0055
X00675
X008
X00945
X0105641Y0021591
X0108406Y0023961
T03
X0019685Y0112
X0102362
M30
