G04*
G04 #@! TF.GenerationSoftware,Altium Limited,Altium Designer,22.2.1 (43)*
G04*
G04 Layer_Color=8388736*
%FSLAX25Y25*%
%MOIN*%
G70*
G04*
G04 #@! TF.SameCoordinates,FD089562-881E-4EE4-B05D-B5CD34326894*
G04*
G04*
G04 #@! TF.FilePolarity,Negative*
G04*
G01*
G75*
%ADD13R,0.01378X0.08661*%
%ADD14R,0.07874X0.09843*%
%ADD15R,0.01181X0.05906*%
%ADD16R,0.02959X0.02762*%
D13*
X21925Y10500D02*
D03*
X23894D02*
D03*
X25862D02*
D03*
X27831D02*
D03*
X29799D02*
D03*
X39642D02*
D03*
X41610D02*
D03*
X43579D02*
D03*
X45547D02*
D03*
X47516D02*
D03*
X49484D02*
D03*
X51453D02*
D03*
X53421D02*
D03*
X55390D02*
D03*
X57358D02*
D03*
X59327D02*
D03*
X61295D02*
D03*
X63264D02*
D03*
X65232D02*
D03*
X67201D02*
D03*
X69169D02*
D03*
X71138D02*
D03*
X73106D02*
D03*
X75075D02*
D03*
X77043D02*
D03*
X79012D02*
D03*
X80980D02*
D03*
X82949D02*
D03*
X84917D02*
D03*
X86886D02*
D03*
X88854D02*
D03*
X90823D02*
D03*
X92791D02*
D03*
X94760D02*
D03*
D14*
X107310Y68644D02*
D03*
X17232D02*
D03*
D15*
X23885Y58502D02*
D03*
X25854D02*
D03*
X27822D02*
D03*
X29791D02*
D03*
X31759D02*
D03*
X33728D02*
D03*
X35696D02*
D03*
X37665D02*
D03*
X98688D02*
D03*
X96720D02*
D03*
X94751D02*
D03*
X92783D02*
D03*
X90814D02*
D03*
X88846D02*
D03*
X86877D02*
D03*
X84909D02*
D03*
X82940D02*
D03*
X80972D02*
D03*
X79003D02*
D03*
X77035D02*
D03*
X75066D02*
D03*
X73098D02*
D03*
X71129D02*
D03*
X69161D02*
D03*
X67192D02*
D03*
X65224D02*
D03*
X63255D02*
D03*
X61287D02*
D03*
X59318D02*
D03*
X57350D02*
D03*
X55381D02*
D03*
X53413D02*
D03*
X51444D02*
D03*
X49476D02*
D03*
X47507D02*
D03*
X45539D02*
D03*
X43570D02*
D03*
X41602D02*
D03*
X39633D02*
D03*
X100657D02*
D03*
D16*
X16500Y41000D02*
D03*
Y37653D02*
D03*
X16500Y47827D02*
D03*
Y51173D02*
D03*
X35614Y43198D02*
D03*
Y46545D02*
D03*
X87790Y23827D02*
D03*
Y27173D02*
D03*
X91896Y23827D02*
D03*
Y27173D02*
D03*
X75984Y23827D02*
D03*
Y27173D02*
D03*
X80072Y23827D02*
D03*
Y27173D02*
D03*
X64166Y23827D02*
D03*
Y27173D02*
D03*
X68271Y23827D02*
D03*
Y27173D02*
D03*
X52346Y23827D02*
D03*
Y27173D02*
D03*
X56456Y23827D02*
D03*
Y27173D02*
D03*
M02*
