G04*
G04 #@! TF.GenerationSoftware,Altium Limited,Altium Designer,22.2.1 (43)*
G04*
G04 Layer_Physical_Order=1*
G04 Layer_Color=255*
%FSLAX25Y25*%
%MOIN*%
G70*
G04*
G04 #@! TF.SameCoordinates,FD089562-881E-4EE4-B05D-B5CD34326894*
G04*
G04*
G04 #@! TF.FilePolarity,Positive*
G04*
G01*
G75*
%ADD12R,0.02559X0.02362*%
%ADD13R,0.01378X0.08661*%
%ADD14R,0.07874X0.09843*%
%ADD15R,0.01181X0.05906*%
%ADD17C,0.00800*%
%ADD18C,0.01300*%
%ADD19C,0.02000*%
%ADD20C,0.01150*%
%ADD21C,0.01772*%
%ADD22C,0.02362*%
G36*
X110500Y77500D02*
Y74155D01*
X102783D01*
Y63132D01*
X110500D01*
Y22500D01*
X108000Y20000D01*
X95522D01*
X95111Y20500D01*
Y29000D01*
X95027Y29425D01*
X94786Y29786D01*
X93111Y31460D01*
Y54500D01*
X93027Y54925D01*
X92786Y55286D01*
X92425Y55527D01*
X92000Y55611D01*
X91995Y55616D01*
Y62045D01*
X87665D01*
Y55088D01*
X87540Y54988D01*
X87218Y54831D01*
X86925Y55027D01*
X86500Y55111D01*
X86476Y55107D01*
X86089Y55424D01*
Y62045D01*
X81760D01*
Y55477D01*
X81405Y55334D01*
X81260Y55303D01*
X80925Y55527D01*
X80500Y55611D01*
X80184Y55871D01*
Y62045D01*
X75854D01*
Y55342D01*
X75550Y55118D01*
X75354Y55041D01*
X75000Y55111D01*
X74778Y55067D01*
X74341Y55344D01*
X74278Y55430D01*
Y62045D01*
X69949D01*
Y55778D01*
X69449Y55511D01*
X69425Y55527D01*
X69000Y55611D01*
X68873Y55586D01*
X68373Y55947D01*
Y62045D01*
X64043D01*
Y55215D01*
X63550Y54944D01*
X63425Y55027D01*
X63000Y55111D01*
X62967Y55105D01*
X62467Y55511D01*
Y62045D01*
X58138D01*
Y55606D01*
X58106Y55578D01*
X57638Y55385D01*
X57425Y55527D01*
X57000Y55611D01*
X56562Y56034D01*
Y62045D01*
X52232D01*
Y56377D01*
X51732Y56065D01*
X51500Y56111D01*
X51156Y56043D01*
X50867Y56186D01*
X50656Y56349D01*
Y62045D01*
X46327D01*
Y55860D01*
X46171Y55731D01*
X45827Y55546D01*
X45500Y55611D01*
X45251Y55562D01*
X44751Y55866D01*
Y62045D01*
X40421D01*
Y55922D01*
X40035Y55604D01*
X40000Y55611D01*
X39575Y55527D01*
X39353Y55378D01*
X38903Y55556D01*
X38853Y55600D01*
Y58502D01*
X38845Y58538D01*
Y62045D01*
X32547D01*
Y58538D01*
X32540Y58502D01*
Y49690D01*
X32255Y49405D01*
X31997Y49019D01*
X31907Y48565D01*
X31907Y48565D01*
Y41504D01*
X31907Y41504D01*
X31997Y41049D01*
X32255Y40664D01*
X32287Y40631D01*
Y37820D01*
X32224Y37757D01*
X31999Y37214D01*
Y36627D01*
X32224Y36085D01*
X32639Y35670D01*
X33182Y35445D01*
X33769D01*
X34311Y35670D01*
X34727Y36085D01*
X34951Y36627D01*
Y37214D01*
X34917Y37296D01*
X35300Y37679D01*
X35308Y37676D01*
X35895D01*
X35990Y37716D01*
X36373Y37333D01*
X36251Y37038D01*
Y36451D01*
X36476Y35909D01*
X36891Y35494D01*
X37433Y35269D01*
X38021D01*
X38389Y35421D01*
X38889Y35166D01*
Y20500D01*
X38478Y20000D01*
X33000D01*
X28500Y15500D01*
X21000D01*
Y20000D01*
X20000Y21000D01*
X13500D01*
X11054Y23446D01*
Y77054D01*
X14470Y80470D01*
X106976Y81024D01*
X110500Y77500D01*
D02*
G37*
G36*
X46500Y16000D02*
X44500D01*
Y26000D01*
X46500D01*
Y16000D01*
D02*
G37*
G36*
X87938Y15468D02*
X85938D01*
Y21467D01*
X87938D01*
Y15468D01*
D02*
G37*
G36*
X81986D02*
X79986D01*
Y21467D01*
X81986D01*
Y15468D01*
D02*
G37*
G36*
X76094D02*
X74094D01*
Y21467D01*
X76094D01*
Y15468D01*
D02*
G37*
G36*
X70185D02*
X68185D01*
Y21467D01*
X70185D01*
Y15468D01*
D02*
G37*
G36*
X64249D02*
X62249D01*
Y21467D01*
X64249D01*
Y15468D01*
D02*
G37*
G36*
X58384D02*
X56384D01*
Y21467D01*
X58384D01*
Y15468D01*
D02*
G37*
G36*
X52500D02*
X50500D01*
Y21467D01*
X52500D01*
Y15468D01*
D02*
G37*
%LPC*%
G36*
X21759Y74155D02*
X12705D01*
Y63132D01*
X21382D01*
X21759Y63132D01*
X21882Y62684D01*
Y62573D01*
X21882Y62573D01*
X22069Y62121D01*
X22070D01*
X22569Y61621D01*
X22705Y61565D01*
Y58538D01*
X22697Y58502D01*
X22705Y58465D01*
Y54959D01*
X30971D01*
Y58465D01*
X30979Y58502D01*
X30971Y58538D01*
Y61621D01*
X30973Y61621D01*
X30973Y61621D01*
X31473Y62121D01*
X31660Y62573D01*
X31660Y62573D01*
Y67823D01*
X31660Y67823D01*
X31473Y68274D01*
X30723Y69024D01*
X30271Y69211D01*
X30271Y69211D01*
X23271D01*
X23271Y69211D01*
X22819Y69024D01*
Y69024D01*
X22259Y68463D01*
X21759Y68671D01*
Y74155D01*
D02*
G37*
G36*
X18370Y49598D02*
X14630D01*
Y46056D01*
X14879D01*
Y42771D01*
X14630D01*
Y39229D01*
X18370D01*
Y42771D01*
X18121D01*
Y46056D01*
X18370D01*
Y49598D01*
D02*
G37*
%LPD*%
G36*
X31021Y67823D02*
Y62573D01*
X30521Y62073D01*
X23021D01*
X22521Y62573D01*
Y67823D01*
X23271Y68573D01*
X30271D01*
X31021Y67823D01*
D02*
G37*
D12*
X16500Y41000D02*
D03*
Y37653D02*
D03*
X16500Y47827D02*
D03*
Y51173D02*
D03*
X35614Y43198D02*
D03*
Y46545D02*
D03*
X87790Y23827D02*
D03*
Y27173D02*
D03*
X91896Y23827D02*
D03*
Y27173D02*
D03*
X75984Y23827D02*
D03*
Y27173D02*
D03*
X80072Y23827D02*
D03*
Y27173D02*
D03*
X64166Y23827D02*
D03*
Y27173D02*
D03*
X68271Y23827D02*
D03*
Y27173D02*
D03*
X52346Y23827D02*
D03*
Y27173D02*
D03*
X56456Y23827D02*
D03*
Y27173D02*
D03*
D13*
X21925Y10500D02*
D03*
X23894D02*
D03*
X25862D02*
D03*
X27831D02*
D03*
X29799D02*
D03*
X39642D02*
D03*
X41610D02*
D03*
X43579D02*
D03*
X45547D02*
D03*
X47516D02*
D03*
X49484D02*
D03*
X51453D02*
D03*
X53421D02*
D03*
X55390D02*
D03*
X57358D02*
D03*
X59327D02*
D03*
X61295D02*
D03*
X63264D02*
D03*
X65232D02*
D03*
X67201D02*
D03*
X69169D02*
D03*
X71138D02*
D03*
X73106D02*
D03*
X75075D02*
D03*
X77043D02*
D03*
X79012D02*
D03*
X80980D02*
D03*
X82949D02*
D03*
X84917D02*
D03*
X86886D02*
D03*
X88854D02*
D03*
X90823D02*
D03*
X92791D02*
D03*
X94760D02*
D03*
D14*
X107310Y68644D02*
D03*
X17232D02*
D03*
D15*
X23885Y58502D02*
D03*
X25854D02*
D03*
X27822D02*
D03*
X29791D02*
D03*
X31759D02*
D03*
X33728D02*
D03*
X35696D02*
D03*
X37665D02*
D03*
X98688D02*
D03*
X96720D02*
D03*
X94751D02*
D03*
X92783D02*
D03*
X90814D02*
D03*
X88846D02*
D03*
X86877D02*
D03*
X84909D02*
D03*
X82940D02*
D03*
X80972D02*
D03*
X79003D02*
D03*
X77035D02*
D03*
X75066D02*
D03*
X73098D02*
D03*
X71129D02*
D03*
X69161D02*
D03*
X67192D02*
D03*
X65224D02*
D03*
X63255D02*
D03*
X61287D02*
D03*
X59318D02*
D03*
X57350D02*
D03*
X55381D02*
D03*
X53413D02*
D03*
X51444D02*
D03*
X49476D02*
D03*
X47507D02*
D03*
X45539D02*
D03*
X43570D02*
D03*
X41602D02*
D03*
X39633D02*
D03*
X100657D02*
D03*
D17*
X37727Y41052D02*
X38134Y41459D01*
X33095Y41504D02*
X33475Y41123D01*
X33095Y48565D02*
X33728Y49198D01*
X37665Y49116D02*
X38134Y48647D01*
X47791Y34625D02*
Y55480D01*
X47800Y10784D02*
Y34617D01*
X47791Y34625D02*
X47800Y34617D01*
X49191Y35205D02*
X49200Y35197D01*
Y10784D02*
Y35197D01*
Y10784D02*
X49484Y10500D01*
X49191Y35205D02*
Y55480D01*
X49285Y58311D02*
X49476Y58502D01*
X49285Y55574D02*
Y58311D01*
X49191Y55480D02*
X49285Y55574D01*
X47698D02*
X47791Y55480D01*
X47516Y10500D02*
X47800Y10784D01*
X37727Y36745D02*
Y41052D01*
X38134Y41459D02*
Y48647D01*
X35698Y46629D02*
Y58500D01*
X33475Y36921D02*
Y41123D01*
X33095Y41504D02*
Y48565D01*
X33728Y49198D02*
Y58502D01*
X37665Y49116D02*
Y58502D01*
X35608Y39158D02*
Y43192D01*
X43286Y35205D02*
X43295Y35197D01*
X41895Y10784D02*
Y34617D01*
X41886Y34625D02*
X41895Y34617D01*
X41886Y34625D02*
Y55480D01*
X41792Y55574D02*
X41886Y55480D01*
X43295Y10784D02*
X43579Y10500D01*
X41602Y58502D02*
X41792Y58311D01*
Y55574D02*
Y58311D01*
X43380D02*
X43570Y58502D01*
X43380Y55574D02*
Y58311D01*
X43286Y55480D02*
X43380Y55574D01*
X43286Y35205D02*
Y55480D01*
X43295Y10784D02*
Y35197D01*
X41610Y10500D02*
X41895Y10784D01*
X47698Y55574D02*
Y58311D01*
X47507Y58502D02*
X47698Y58311D01*
X84718D02*
X84909Y58502D01*
X84718Y55574D02*
Y58311D01*
X84624Y35205D02*
Y55480D01*
Y35205D02*
X84633Y35197D01*
X83233Y10784D02*
Y34617D01*
X83224Y34625D02*
X83233Y34617D01*
X84624Y55480D02*
X84718Y55574D01*
X83131Y55574D02*
X83224Y55480D01*
X83131Y55574D02*
Y58311D01*
X83224Y34625D02*
Y55480D01*
X82940Y58502D02*
X83131Y58311D01*
X84633Y10784D02*
X84917Y10500D01*
X84633Y10784D02*
Y35197D01*
X82949Y10500D02*
X83233Y10784D01*
X72907Y58311D02*
X73098Y58502D01*
X72907Y55574D02*
Y58311D01*
X72813Y55480D02*
X72907Y55574D01*
X72813Y35205D02*
Y55480D01*
X71422Y10784D02*
Y34617D01*
X72813Y35205D02*
X72822Y35197D01*
X71413Y34625D02*
X71422Y34617D01*
X71320Y55574D02*
Y58311D01*
X71129Y58502D02*
X71320Y58311D01*
X72822Y10784D02*
X73106Y10500D01*
X72822Y10784D02*
Y35197D01*
X71320Y55574D02*
X71413Y55480D01*
Y34625D02*
Y55480D01*
X71138Y10500D02*
X71422Y10784D01*
X61096Y55574D02*
Y58311D01*
X61002Y55480D02*
X61096Y55574D01*
Y58311D02*
X61287Y58502D01*
X61002Y35205D02*
Y55480D01*
Y35205D02*
X61011Y35197D01*
Y10784D02*
X61295Y10500D01*
X59318Y58502D02*
X59509Y58311D01*
X59327Y10500D02*
X59611Y10784D01*
Y34617D01*
X59602Y34625D02*
X59611Y34617D01*
X59602Y34625D02*
Y55480D01*
X59509Y55574D02*
Y58311D01*
Y55574D02*
X59602Y55480D01*
X61011Y10784D02*
Y35197D01*
X90624Y55574D02*
Y58311D01*
X90530Y42724D02*
Y55480D01*
X90624Y55574D01*
X90530Y42724D02*
X90543Y42711D01*
Y28423D02*
Y42711D01*
Y28423D02*
X91012Y27954D01*
X89143Y28423D02*
Y42131D01*
X88674Y27954D02*
X89143Y28423D01*
X88571Y27954D02*
X88674D01*
X87790Y27173D02*
X88571Y27954D01*
X89036Y55574D02*
X89130Y55480D01*
Y42144D02*
Y55480D01*
Y42144D02*
X89143Y42131D01*
X89036Y55574D02*
Y58311D01*
X90624D02*
X90814Y58502D01*
X88846D02*
X89036Y58311D01*
X91115Y27954D02*
X91896Y27173D01*
X91012Y27954D02*
X91115D01*
X78813Y55574D02*
Y58311D01*
X78728Y28419D02*
X79973Y27173D01*
X77225Y55574D02*
X77319Y55480D01*
X77225Y55574D02*
Y58311D01*
X78719Y42722D02*
Y55480D01*
X77035Y58502D02*
X77225Y58311D01*
X78813D02*
X79003Y58502D01*
X79973Y27173D02*
X80072D01*
X78728Y28419D02*
Y42713D01*
X78719Y42722D02*
X78728Y42713D01*
X75984Y27173D02*
X76082D01*
X78719Y55480D02*
X78813Y55574D01*
X76082Y27173D02*
X77328Y28419D01*
X77319Y42142D02*
X77328Y42133D01*
Y28419D02*
Y42133D01*
X77319Y42142D02*
Y55480D01*
X67002Y55574D02*
Y58311D01*
X66908Y42723D02*
X66918Y42712D01*
Y28423D02*
Y42712D01*
X66908Y42723D02*
Y55480D01*
X67002Y55574D01*
X66918Y28423D02*
X67387Y27954D01*
X67002Y58311D02*
X67192Y58502D01*
X67490Y27954D02*
X68271Y27173D01*
X65050Y27954D02*
X65518Y28423D01*
X65508Y42143D02*
Y55480D01*
X65414Y55574D02*
X65508Y55480D01*
X65518Y28423D02*
Y42132D01*
X67387Y27954D02*
X67490D01*
X65224Y58502D02*
X65414Y58311D01*
Y55574D02*
Y58311D01*
X64166Y27173D02*
X64947Y27954D01*
X65050D01*
X65508Y42143D02*
X65518Y42132D01*
X55191Y58311D02*
X55381Y58502D01*
X55191Y55574D02*
Y58311D01*
X55097Y42720D02*
Y55480D01*
X55191Y55574D01*
X55101Y28423D02*
Y42715D01*
X55097Y42720D02*
X55101Y42715D01*
X55570Y27954D02*
X55675D01*
X55101Y28423D02*
X55570Y27954D01*
X55675D02*
X56456Y27173D01*
X53603Y55574D02*
X53697Y55480D01*
Y42140D02*
Y55480D01*
X53603Y55574D02*
Y58311D01*
X53701Y28423D02*
Y42135D01*
X53233Y27954D02*
X53701Y28423D01*
X53413Y58502D02*
X53603Y58311D01*
X53127Y27954D02*
X53233D01*
X53697Y42140D02*
X53701Y42135D01*
X52346Y27173D02*
X53127Y27954D01*
X90543Y22577D02*
X91012Y23046D01*
X91115D01*
X90543Y16465D02*
Y22577D01*
X89139Y17041D02*
X89143Y17045D01*
Y22577D01*
X88674Y23046D02*
X89143Y22577D01*
X90539Y10784D02*
Y16461D01*
X90543Y16465D01*
X88854Y10500D02*
X89139Y10784D01*
X88571Y23046D02*
X88674D01*
X89139Y10784D02*
Y17041D01*
X90539Y10784D02*
X90823Y10500D01*
X87790Y23827D02*
X88571Y23046D01*
X91115D02*
X91896Y23827D01*
X78728Y16464D02*
Y22581D01*
X79973Y23827D02*
X80072D01*
X76082D02*
X77328Y22581D01*
X75984Y23827D02*
X76082D01*
X78728Y22581D02*
X79973Y23827D01*
X78728Y10784D02*
Y16463D01*
X78728Y16464D01*
X77043Y10500D02*
X77328Y10784D01*
Y17043D01*
X77328Y17043D01*
Y22581D01*
X78728Y10784D02*
X79012Y10500D01*
X67387Y23046D02*
X67490D01*
X68271Y23827D01*
X66918Y22577D02*
X67387Y23046D01*
X66918Y16464D02*
Y22577D01*
X66917Y16463D02*
X66918Y16464D01*
X65517Y17042D02*
X65518Y17044D01*
Y22577D01*
X66917Y10784D02*
X67201Y10500D01*
X65517Y10784D02*
Y17042D01*
X65232Y10500D02*
X65517Y10784D01*
X64947Y23046D02*
X65050D01*
X65518Y22577D01*
X64166Y23827D02*
X64947Y23046D01*
X66917Y10784D02*
Y16463D01*
X55675Y23046D02*
X56456Y23827D01*
X55570Y23046D02*
X55675D01*
X55101Y17865D02*
X55106Y17861D01*
X55101Y17865D02*
Y22577D01*
X55570Y23046D01*
X55106Y10784D02*
X55390Y10500D01*
X52346Y23827D02*
X53127Y23046D01*
X55106Y10784D02*
Y17861D01*
X53706Y10784D02*
Y17281D01*
X53421Y10500D02*
X53706Y10784D01*
X53701Y17286D02*
X53706Y17281D01*
X53701Y17286D02*
Y22577D01*
X53127Y23046D02*
X53233D01*
X53701Y22577D01*
D18*
X92791Y17209D02*
X94760Y19177D01*
Y10500D02*
Y19177D01*
X97583Y22000D02*
X98000D01*
X39642Y10500D02*
Y19358D01*
X37500Y21500D02*
X39642Y19358D01*
X92791Y10500D02*
Y17209D01*
X45500Y17000D02*
X45547Y16953D01*
Y10500D02*
Y16953D01*
X86925Y10539D02*
Y20441D01*
X86992Y20508D01*
X86886Y10500D02*
X86925Y10539D01*
X80975Y10505D02*
X80980Y10500D01*
X80975Y10505D02*
Y20503D01*
X80970Y20508D02*
X80975Y20503D01*
X75080Y10505D02*
Y20503D01*
X75085Y20508D01*
X75075Y10500D02*
X75080Y10505D01*
X69184Y20493D02*
X69199Y20508D01*
X69169Y10500D02*
X69184Y10515D01*
Y20493D01*
X63264Y10500D02*
X63273Y10509D01*
Y20498D01*
X63283Y20508D01*
X57358Y10500D02*
Y16358D01*
X57500Y16500D01*
X51453Y16453D02*
X51500Y16500D01*
X51453Y10500D02*
Y16453D01*
X25862Y10500D02*
Y16638D01*
X25500Y17000D02*
X25862Y16638D01*
X23894Y10500D02*
Y16394D01*
X24000Y16500D01*
X21925Y10500D02*
Y16925D01*
X22000Y17000D01*
D19*
X94760Y19177D02*
X97583Y22000D01*
X16500Y47827D02*
X16500Y47827D01*
Y41000D02*
Y47827D01*
D20*
X35614Y46545D02*
X35698Y46629D01*
X29775Y58517D02*
X29791Y58502D01*
X29775Y58517D02*
Y63611D01*
X29694Y63692D02*
X29775Y63611D01*
X27807Y58517D02*
Y62452D01*
X26894Y63364D02*
Y63692D01*
X27807Y58517D02*
X27822Y58502D01*
X26894Y63364D02*
X27807Y62452D01*
X25854Y58502D02*
X25869Y58517D01*
Y62339D01*
X26894Y63364D01*
X23901Y63498D02*
X24095Y63692D01*
X23885Y58502D02*
X23901Y58517D01*
Y63498D01*
D21*
X95000Y39500D02*
D03*
Y51000D02*
D03*
X16500Y44413D02*
D03*
X94500Y64500D02*
D03*
X89500D02*
D03*
X84500D02*
D03*
X79500D02*
D03*
X74500D02*
D03*
X69500D02*
D03*
X64500D02*
D03*
X59500D02*
D03*
X54500D02*
D03*
X49500D02*
D03*
X44500D02*
D03*
X39500D02*
D03*
X34500D02*
D03*
X57362Y20508D02*
D03*
X86992D02*
D03*
X80970D02*
D03*
X75085D02*
D03*
X69199D02*
D03*
X63283D02*
D03*
X51500D02*
D03*
X33475Y36921D02*
D03*
X37727Y36745D02*
D03*
X35601Y39152D02*
D03*
D22*
X45562Y25898D02*
D03*
X94500Y76500D02*
D03*
X108406Y23961D02*
D03*
X105641Y21591D02*
D03*
X13941Y22740D02*
D03*
X25500Y48500D02*
D03*
Y44000D02*
D03*
Y39500D02*
D03*
Y35000D02*
D03*
Y30500D02*
D03*
Y26000D02*
D03*
X80000Y76500D02*
D03*
X67500D02*
D03*
X55000D02*
D03*
X42500D02*
D03*
X30000D02*
D03*
X24095Y63692D02*
D03*
X26894D02*
D03*
X29694D02*
D03*
Y66597D02*
D03*
X26894D02*
D03*
X24095D02*
D03*
M02*
