G04*
G04 #@! TF.GenerationSoftware,Altium Limited,Altium Designer,23.5.1 (21)*
G04*
G04 Layer_Physical_Order=2*
G04 Layer_Color=16711680*
%FSLAX25Y25*%
%MOIN*%
G70*
G04*
G04 #@! TF.SameCoordinates,759C71C3-0AE8-42CF-A238-0F2E4D7DB1F7*
G04*
G04*
G04 #@! TF.FilePolarity,Positive*
G04*
G01*
G75*
%ADD25C,0.01181*%
%ADD26C,0.01575*%
%ADD27C,0.01968*%
%ADD28C,0.03543*%
%ADD29R,0.05906X0.01181*%
%ADD30R,0.09843X0.15748*%
G36*
X187500Y179000D02*
Y53500D01*
X183500Y49500D01*
X79000D01*
X72000Y56500D01*
Y76663D01*
X76125D01*
X76157Y76586D01*
X76603Y76140D01*
X77185Y75899D01*
X77815D01*
X78397Y76140D01*
X78843Y76586D01*
X79084Y77168D01*
Y77799D01*
X78843Y78381D01*
X78456Y78768D01*
X78843Y79155D01*
X79084Y79737D01*
Y80367D01*
X78843Y80949D01*
X78397Y81395D01*
X77815Y81636D01*
X77185D01*
X76603Y81395D01*
X76157Y80949D01*
X76125Y80872D01*
X72000D01*
Y81979D01*
X72397Y82144D01*
X72843Y82589D01*
X73084Y83171D01*
Y83802D01*
X72843Y84384D01*
X72456Y84771D01*
X72843Y85158D01*
X73084Y85740D01*
Y86370D01*
X72843Y86953D01*
X72397Y87398D01*
X72000Y87563D01*
Y88474D01*
X76125D01*
X76157Y88397D01*
X76603Y87951D01*
X77185Y87710D01*
X77815D01*
X78397Y87951D01*
X78843Y88397D01*
X79084Y88979D01*
Y89610D01*
X78843Y90192D01*
X78456Y90579D01*
X78843Y90966D01*
X79084Y91548D01*
Y92178D01*
X78843Y92760D01*
X78397Y93206D01*
X77815Y93447D01*
X77185D01*
X76603Y93206D01*
X76157Y92760D01*
X76125Y92683D01*
X72000D01*
Y93715D01*
X72397Y93880D01*
X72843Y94325D01*
X73084Y94908D01*
Y95538D01*
X72843Y96120D01*
X72456Y96507D01*
X72843Y96894D01*
X73084Y97476D01*
Y98106D01*
X72843Y98689D01*
X72397Y99134D01*
X72000Y99299D01*
Y100285D01*
X76125D01*
X76157Y100208D01*
X76603Y99762D01*
X77185Y99521D01*
X77815D01*
X78397Y99762D01*
X78843Y100208D01*
X79084Y100790D01*
Y101421D01*
X78843Y102003D01*
X78456Y102390D01*
X78843Y102777D01*
X79084Y103359D01*
Y103989D01*
X78843Y104571D01*
X78397Y105017D01*
X77815Y105258D01*
X77185D01*
X76603Y105017D01*
X76157Y104571D01*
X76125Y104494D01*
X72000D01*
Y105470D01*
X72397Y105634D01*
X72843Y106080D01*
X73084Y106662D01*
Y107293D01*
X72843Y107875D01*
X72456Y108262D01*
X72843Y108649D01*
X73084Y109231D01*
Y109861D01*
X72843Y110443D01*
X72397Y110889D01*
X72000Y111054D01*
Y112096D01*
X76125D01*
X76157Y112019D01*
X76603Y111574D01*
X77185Y111332D01*
X77815D01*
X78397Y111574D01*
X78843Y112019D01*
X79084Y112601D01*
Y113232D01*
X78843Y113814D01*
X78456Y114201D01*
X78843Y114588D01*
X79084Y115170D01*
Y115800D01*
X78843Y116382D01*
X78397Y116828D01*
X77815Y117069D01*
X77185D01*
X76603Y116828D01*
X76157Y116382D01*
X76125Y116305D01*
X72000D01*
Y117217D01*
X72397Y117382D01*
X72843Y117827D01*
X73084Y118410D01*
Y119040D01*
X72843Y119622D01*
X72456Y120009D01*
X72843Y120396D01*
X73084Y120978D01*
Y121608D01*
X72843Y122191D01*
X72397Y122636D01*
X72000Y122801D01*
Y123975D01*
X77625D01*
X77657Y123898D01*
X78103Y123452D01*
X78685Y123211D01*
X79315D01*
X79897Y123452D01*
X80343Y123898D01*
X80584Y124480D01*
Y125111D01*
X80343Y125693D01*
X79956Y126080D01*
X80343Y126467D01*
X80584Y127049D01*
Y127679D01*
X80343Y128261D01*
X79897Y128707D01*
X79315Y128948D01*
X78685D01*
X78103Y128707D01*
X77657Y128261D01*
X77625Y128184D01*
X72000D01*
X70684Y129500D01*
X61870D01*
X61679Y129962D01*
X71222Y139505D01*
X130778D01*
X138650Y131633D01*
X138824Y131214D01*
X139214Y130824D01*
X139724Y130613D01*
X140276D01*
X140786Y130824D01*
X141176Y131214D01*
X141387Y131724D01*
Y132276D01*
X141176Y132786D01*
X140786Y133176D01*
X140367Y133350D01*
X138946Y134771D01*
X139044Y135261D01*
X139116Y135291D01*
X139506Y135681D01*
X139536Y135754D01*
X140027Y135851D01*
X141698Y134180D01*
X141871Y133761D01*
X142261Y133371D01*
X142771Y133160D01*
X143323D01*
X143833Y133371D01*
X144223Y133761D01*
X144435Y134271D01*
Y134823D01*
X144223Y135333D01*
X143833Y135723D01*
X143414Y135897D01*
X139638Y139673D01*
X137811Y141500D01*
X134172Y145139D01*
X133778Y145403D01*
X133313Y145495D01*
X133313Y145495D01*
X69243D01*
X69243Y145495D01*
X68779Y145403D01*
X68385Y145139D01*
X68385Y145139D01*
X65143Y141897D01*
X58003Y134757D01*
X54571D01*
X54454Y134734D01*
X51018D01*
Y132353D01*
Y129500D01*
Y128416D01*
X54454D01*
X54571Y128392D01*
X57000D01*
Y126938D01*
X56933Y126883D01*
X56933Y126883D01*
X54571D01*
X54454Y126860D01*
X51018D01*
Y122510D01*
X54454D01*
X54571Y122487D01*
X56933D01*
X56933Y122487D01*
X57000Y122432D01*
Y121033D01*
X56933Y120978D01*
X56933Y120978D01*
X54571D01*
X54454Y120954D01*
X51018D01*
Y116605D01*
X54454D01*
X54571Y116581D01*
X56933D01*
X56933Y116581D01*
X57000Y116526D01*
Y115127D01*
X56933Y115072D01*
X56933Y115072D01*
X54571D01*
X54454Y115049D01*
X51018D01*
Y110699D01*
X54454D01*
X54571Y110676D01*
X56933D01*
X56933Y110676D01*
X57000Y110621D01*
Y109222D01*
X56933Y109167D01*
X56933Y109167D01*
X54571D01*
X54454Y109143D01*
X51018D01*
Y104794D01*
X54454D01*
X54571Y104770D01*
X56933D01*
X56933Y104770D01*
X57000Y104716D01*
Y103316D01*
X56933Y103261D01*
X56933Y103261D01*
X54571D01*
X54454Y103238D01*
X51018D01*
Y98888D01*
X54454D01*
X54571Y98865D01*
X56933D01*
X56933Y98865D01*
X57000Y98810D01*
Y97411D01*
X56933Y97356D01*
X56933Y97356D01*
X54571D01*
X54454Y97332D01*
X51018D01*
Y92983D01*
X54454D01*
X54571Y92959D01*
X56933D01*
X56933Y92959D01*
X57000Y92904D01*
Y91505D01*
X56933Y91450D01*
X56933Y91450D01*
X54571D01*
X54454Y91427D01*
X51018D01*
Y87077D01*
X54454D01*
X54571Y87054D01*
X56933D01*
X56933Y87054D01*
X57000Y86999D01*
Y85599D01*
X56933Y85545D01*
X56933Y85545D01*
X54571D01*
X54454Y85521D01*
X51018D01*
Y81172D01*
X54454D01*
X54571Y81148D01*
X56933D01*
X56933Y81148D01*
X57000Y81093D01*
Y79694D01*
X56933Y79639D01*
X56933Y79639D01*
X54571D01*
X54454Y79616D01*
X51018D01*
Y75266D01*
X54454D01*
X54571Y75243D01*
X56933D01*
X56933Y75243D01*
X57000Y75188D01*
Y49500D01*
X28500Y49500D01*
X23358Y54642D01*
Y178858D01*
X42500Y198000D01*
X168500D01*
X187500Y179000D01*
D02*
G37*
%LPC*%
G36*
X147761Y153384D02*
X146774D01*
X145820Y153128D01*
X144965Y152634D01*
X144267Y151936D01*
X143774Y151081D01*
X143518Y150127D01*
Y149140D01*
X143774Y148187D01*
X144267Y147332D01*
X144965Y146633D01*
X145820Y146140D01*
X146774Y145884D01*
X147761D01*
X148715Y146140D01*
X149570Y146633D01*
X150268Y147332D01*
X150762Y148187D01*
X151017Y149140D01*
Y150127D01*
X150762Y151081D01*
X150268Y151936D01*
X149570Y152634D01*
X148715Y153128D01*
X147761Y153384D01*
D02*
G37*
G36*
X49950Y158513D02*
X38908D01*
Y141565D01*
X49950D01*
Y142000D01*
Y158513D01*
D02*
G37*
G36*
X59500Y155149D02*
X53000D01*
X52541Y154959D01*
X51541Y153959D01*
X51351Y153500D01*
Y144576D01*
X51018D01*
Y141500D01*
Y140227D01*
Y136290D01*
X58124D01*
Y137205D01*
X61459Y140541D01*
X61649Y141000D01*
Y141500D01*
Y153000D01*
X61459Y153459D01*
X59959Y154959D01*
X59500Y155149D01*
D02*
G37*
G36*
X147632Y73659D02*
X146904D01*
X146200Y73471D01*
X145570Y73106D01*
X145055Y72592D01*
X144691Y71961D01*
X144502Y71258D01*
Y70530D01*
X144691Y69826D01*
X145055Y69196D01*
X145570Y68681D01*
X146200Y68317D01*
X146904Y68128D01*
X147632D01*
X148335Y68317D01*
X148966Y68681D01*
X149480Y69196D01*
X149845Y69826D01*
X150033Y70530D01*
Y71258D01*
X149845Y71961D01*
X149480Y72592D01*
X148966Y73106D01*
X148335Y73471D01*
X147632Y73659D01*
D02*
G37*
G36*
X49950Y68435D02*
X38908D01*
Y51487D01*
X49950D01*
Y68435D01*
D02*
G37*
%LPD*%
G36*
X61000Y153000D02*
Y141000D01*
X57000Y137000D01*
X52000D01*
Y153500D01*
X53000Y154500D01*
X59500D01*
X61000Y153000D01*
D02*
G37*
D25*
X56933Y123701D02*
X57027Y123794D01*
X78787Y124796D02*
X79000D01*
X78393Y125189D02*
X78787Y124796D01*
X66880Y125189D02*
X78393D01*
X57027Y123794D02*
X65485D01*
X66880Y125189D01*
X78787Y127364D02*
X79000D01*
X54571Y125669D02*
X56933D01*
X57027Y125576D02*
X64747D01*
X66142Y126970D01*
X56933Y125669D02*
X57027Y125576D01*
X66142Y126970D02*
X78393D01*
X78787Y127364D01*
X54571Y123701D02*
X56933D01*
X70719Y140719D02*
X131281D01*
X59056Y131575D02*
X69981Y142500D01*
X69243Y144281D02*
X133313D01*
X58506Y133543D02*
X69243Y144281D01*
X54571Y129606D02*
X59606D01*
X69981Y142500D02*
X132297D01*
X59606Y129606D02*
X70719Y140719D01*
X54571Y131575D02*
X59056D01*
X54571Y133543D02*
X58506D01*
X133313Y144281D02*
X143047Y134547D01*
X132297Y142500D02*
X138330Y136467D01*
X140000Y132000D02*
X140000D01*
X131281Y140719D02*
X140000Y132000D01*
X54571Y76457D02*
X56933D01*
X57027Y76550D02*
X64769D01*
X66096Y77877D01*
X76893D02*
X77287Y77483D01*
X66096Y77877D02*
X76893D01*
X77287Y77483D02*
X77500D01*
X56933Y78425D02*
X57027Y78332D01*
X64031D01*
X65358Y79658D01*
X54571Y78425D02*
X56933D01*
X65358Y79658D02*
X76893D01*
X77287Y80052D01*
X77500D01*
X54571Y88268D02*
X56933D01*
X57027Y88361D02*
X64769D01*
X66096Y89688D01*
X76893D02*
X77287Y89294D01*
X66096Y89688D02*
X76893D01*
X77287Y89294D02*
X77500D01*
X56933Y90236D02*
X57027Y90143D01*
X64031D01*
X65358Y91469D01*
X54571Y90236D02*
X56933D01*
X65358Y91469D02*
X76893D01*
X77287Y91863D01*
X77500D01*
X54571Y100079D02*
X56933D01*
X64769Y100172D02*
X66096Y101499D01*
X57027Y100172D02*
X64769D01*
X66096Y101499D02*
X76893D01*
X77287Y101105D01*
X77500D01*
X56933Y102047D02*
X57027Y101953D01*
X54571Y102047D02*
X56933D01*
X57027Y101953D02*
X64031D01*
X65358Y103280D01*
X76893D01*
X77287Y103674D01*
X77500D01*
X54571Y111890D02*
X56933D01*
X57027Y111984D02*
X64769D01*
X66096Y113310D01*
X76893D02*
X77287Y112917D01*
X66096Y113310D02*
X76893D01*
X77287Y112917D02*
X77500D01*
X56933Y113858D02*
X57027Y113765D01*
X64031D01*
X65358Y115091D01*
X54571Y113858D02*
X56933D01*
X65358Y115091D02*
X76893D01*
X77287Y115485D01*
X77500D01*
X71287Y83487D02*
X71500D01*
X70893Y83880D02*
X71287Y83487D01*
X63144Y83880D02*
X70893D01*
X61720Y82456D02*
X63144Y83880D01*
X57027Y82456D02*
X61720D01*
X56933Y82362D02*
X57027Y82456D01*
X54571Y82362D02*
X56933D01*
X62407Y85661D02*
X70893D01*
X60982Y84237D02*
X62407Y85661D01*
X57027Y84237D02*
X60982D01*
X56933Y84331D02*
X57027Y84237D01*
X54571Y84331D02*
X56933D01*
X70893Y85661D02*
X71287Y86055D01*
X71500D01*
X71287Y95223D02*
X71500D01*
X70893Y95616D02*
X71287Y95223D01*
X63107Y95616D02*
X70893D01*
X61757Y94267D02*
X63107Y95616D01*
X57027Y94267D02*
X61757D01*
X56933Y94173D02*
X57027Y94267D01*
X54571Y94173D02*
X56933D01*
X71287Y97791D02*
X71500D01*
X70893Y97398D02*
X71287Y97791D01*
X62369Y97398D02*
X70893D01*
X61020Y96048D02*
X62369Y97398D01*
X57027Y96048D02*
X61020D01*
X56933Y96142D02*
X57027Y96048D01*
X54571Y96142D02*
X56933D01*
X61786Y106078D02*
X63079Y107371D01*
X57027Y106078D02*
X61786D01*
X54571Y105984D02*
X56933D01*
X57027Y106078D01*
X63079Y107371D02*
X70893D01*
X71287Y109546D02*
X71500D01*
X70893Y107371D02*
X71287Y106977D01*
X62341Y109152D02*
X70893D01*
X56933Y107953D02*
X57027Y107859D01*
X61048D01*
X54571Y107953D02*
X56933D01*
X71287Y106977D02*
X71500D01*
X61048Y107859D02*
X62341Y109152D01*
X70893D02*
X71287Y109546D01*
Y118725D02*
X71500D01*
X56933Y117795D02*
X57027Y117889D01*
X63047Y119118D02*
X70893D01*
X54571Y117795D02*
X56933D01*
X71287Y121293D02*
X71500D01*
X62309Y120900D02*
X70893D01*
X61080Y119670D02*
X62309Y120900D01*
X56933Y119764D02*
X57027Y119670D01*
Y117889D02*
X61818D01*
X54571Y119764D02*
X56933D01*
X61818Y117889D02*
X63047Y119118D01*
X57027Y119670D02*
X61080D01*
X70893Y120900D02*
X71287Y121293D01*
X70893Y119118D02*
X71287Y118725D01*
X56933Y111890D02*
X57027Y111984D01*
X56933Y100079D02*
X57027Y100172D01*
X56933Y88268D02*
X57027Y88361D01*
X56933Y76457D02*
X57027Y76550D01*
D26*
X75563Y122878D02*
D03*
X49185Y128000D02*
D03*
Y124500D02*
D03*
X149000Y134500D02*
D03*
X140500Y126500D02*
D03*
X143500Y139000D02*
D03*
X137000Y131000D02*
D03*
X133000D02*
D03*
Y127500D02*
D03*
Y124000D02*
D03*
Y120500D02*
D03*
Y117000D02*
D03*
Y113500D02*
D03*
Y110000D02*
D03*
Y106500D02*
D03*
Y103000D02*
D03*
Y99500D02*
D03*
Y96000D02*
D03*
Y92500D02*
D03*
Y89000D02*
D03*
Y85500D02*
D03*
Y82000D02*
D03*
Y78500D02*
D03*
Y75000D02*
D03*
X49185Y72000D02*
D03*
Y75500D02*
D03*
Y79000D02*
D03*
Y82500D02*
D03*
Y86000D02*
D03*
Y89500D02*
D03*
Y93000D02*
D03*
Y96500D02*
D03*
Y100000D02*
D03*
Y103500D02*
D03*
Y107000D02*
D03*
Y110500D02*
D03*
Y114000D02*
D03*
Y117500D02*
D03*
Y121000D02*
D03*
Y131500D02*
D03*
Y135000D02*
D03*
Y138500D02*
D03*
X75563Y75774D02*
D03*
Y81790D02*
D03*
Y87682D02*
D03*
Y93570D02*
D03*
Y99467D02*
D03*
Y105331D02*
D03*
X75637Y129061D02*
D03*
X75563Y111317D02*
D03*
Y117130D02*
D03*
X138330Y136467D02*
D03*
X140000Y132000D02*
D03*
X143047Y134547D02*
D03*
D27*
X79000Y127364D02*
D03*
Y124796D02*
D03*
X77500Y77483D02*
D03*
Y80052D02*
D03*
Y89294D02*
D03*
Y91863D02*
D03*
Y101105D02*
D03*
Y103674D02*
D03*
Y112917D02*
D03*
Y115485D02*
D03*
X71500Y86055D02*
D03*
Y83487D02*
D03*
Y97791D02*
D03*
Y95223D02*
D03*
Y109546D02*
D03*
Y106977D02*
D03*
Y121293D02*
D03*
Y118725D02*
D03*
D28*
X62000Y57500D02*
D03*
Y65000D02*
D03*
X118000Y149000D02*
D03*
X148500Y140500D02*
D03*
X181000Y150500D02*
D03*
Y138500D02*
D03*
Y82000D02*
D03*
Y75000D02*
D03*
Y88500D02*
D03*
Y144500D02*
D03*
X127500Y179000D02*
D03*
X119000D02*
D03*
X110500D02*
D03*
X102000D02*
D03*
X93500D02*
D03*
X85000D02*
D03*
X103500Y149500D02*
D03*
X95000D02*
D03*
X86500D02*
D03*
X78000D02*
D03*
X69000D02*
D03*
X54500Y147000D02*
D03*
X59000D02*
D03*
Y151500D02*
D03*
X54500D02*
D03*
D29*
X54571Y66614D02*
D03*
Y127638D02*
D03*
Y125669D02*
D03*
Y123701D02*
D03*
Y121732D02*
D03*
Y119764D02*
D03*
Y117795D02*
D03*
Y115827D02*
D03*
Y113858D02*
D03*
Y111890D02*
D03*
Y109921D02*
D03*
Y107953D02*
D03*
Y105984D02*
D03*
Y104016D02*
D03*
Y102047D02*
D03*
Y100079D02*
D03*
Y98110D02*
D03*
Y96142D02*
D03*
Y94173D02*
D03*
Y92205D02*
D03*
Y90236D02*
D03*
Y88268D02*
D03*
Y86299D02*
D03*
Y84331D02*
D03*
Y82362D02*
D03*
Y80394D02*
D03*
Y78425D02*
D03*
Y76457D02*
D03*
Y74488D02*
D03*
Y72520D02*
D03*
Y70551D02*
D03*
Y68583D02*
D03*
Y129606D02*
D03*
Y131575D02*
D03*
Y133543D02*
D03*
Y135512D02*
D03*
Y137480D02*
D03*
Y139449D02*
D03*
Y141417D02*
D03*
Y143386D02*
D03*
D30*
X44429Y150039D02*
D03*
Y59961D02*
D03*
M02*
