G04*
G04 #@! TF.GenerationSoftware,Altium Limited,Altium Designer,23.5.1 (21)*
G04*
G04 Layer_Color=32896*
%FSLAX25Y25*%
%MOIN*%
G70*
G04*
G04 #@! TF.SameCoordinates,759C71C3-0AE8-42CF-A238-0F2E4D7DB1F7*
G04*
G04*
G04 #@! TF.FilePolarity,Positive*
G04*
G01*
G75*
%ADD11C,0.01000*%
G36*
X56178Y64965D02*
X56152Y64903D01*
X56127Y64838D01*
X56102Y64778D01*
X56076Y64723D01*
X56065Y64697D01*
X56055Y64674D01*
X56046Y64653D01*
X56039Y64635D01*
X56032Y64621D01*
X56028Y64612D01*
X56023Y64605D01*
Y64603D01*
X56011Y64577D01*
X56000Y64554D01*
X55981Y64512D01*
X55968Y64480D01*
X55956Y64455D01*
X55949Y64436D01*
X55945Y64425D01*
X55940Y64418D01*
Y64416D01*
X56016Y64427D01*
X56088Y64436D01*
X56152Y64443D01*
X56210Y64450D01*
X56263Y64457D01*
X56312Y64462D01*
X56353Y64464D01*
X56393Y64469D01*
X56425Y64471D01*
X56450Y64473D01*
X56473D01*
X56492Y64476D01*
X56506D01*
X56517D01*
X56522D01*
X56524D01*
Y64087D01*
X56480D01*
X56434Y64090D01*
X56337Y64094D01*
X56240Y64104D01*
X56194Y64108D01*
X56148Y64113D01*
X56106Y64117D01*
X56067Y64122D01*
X56032Y64127D01*
X56002Y64131D01*
X55977Y64134D01*
X55958Y64136D01*
X55947Y64138D01*
X55942D01*
X55993Y64053D01*
X56042Y63965D01*
X56085Y63877D01*
X56106Y63838D01*
X56122Y63799D01*
X56141Y63764D01*
X56155Y63729D01*
X56169Y63702D01*
X56178Y63676D01*
X56187Y63656D01*
X56194Y63642D01*
X56196Y63630D01*
X56199Y63628D01*
X55815Y63501D01*
X55810Y63512D01*
X55806Y63528D01*
X55794Y63563D01*
X55783Y63602D01*
X55771Y63644D01*
X55762Y63681D01*
X55757Y63699D01*
X55753Y63713D01*
X55751Y63725D01*
X55748Y63736D01*
X55746Y63741D01*
Y63743D01*
X55734Y63789D01*
X55725Y63831D01*
X55716Y63868D01*
X55709Y63900D01*
X55702Y63930D01*
X55695Y63956D01*
X55690Y63977D01*
X55686Y63997D01*
X55683Y64011D01*
X55681Y64025D01*
X55679Y64034D01*
X55677Y64044D01*
X55674Y64053D01*
Y64055D01*
X55665Y64046D01*
X55653Y64034D01*
X55626Y64007D01*
X55614Y63993D01*
X55603Y63981D01*
X55593Y63972D01*
X55591Y63970D01*
X55531Y63907D01*
X55471Y63847D01*
X55413Y63792D01*
X55362Y63743D01*
X55339Y63722D01*
X55318Y63702D01*
X55300Y63686D01*
X55284Y63672D01*
X55272Y63660D01*
X55261Y63651D01*
X55256Y63646D01*
X55254Y63644D01*
X55000Y63972D01*
X55097Y64034D01*
X55189Y64092D01*
X55233Y64120D01*
X55275Y64145D01*
X55314Y64168D01*
X55351Y64191D01*
X55383Y64210D01*
X55413Y64228D01*
X55439Y64242D01*
X55459Y64256D01*
X55478Y64265D01*
X55489Y64272D01*
X55499Y64277D01*
X55501Y64279D01*
X55016Y64573D01*
X55235Y64907D01*
X55258Y64889D01*
X55282Y64868D01*
X55307Y64847D01*
X55330Y64829D01*
X55348Y64811D01*
X55367Y64797D01*
X55376Y64787D01*
X55381Y64783D01*
X55674Y64519D01*
X55695Y64635D01*
X55704Y64690D01*
X55713Y64741D01*
X55723Y64792D01*
X55732Y64838D01*
X55741Y64882D01*
X55748Y64921D01*
X55755Y64956D01*
X55762Y64988D01*
X55769Y65016D01*
X55774Y65039D01*
X55778Y65058D01*
X55781Y65071D01*
X55783Y65081D01*
Y65083D01*
X56178Y64965D01*
D02*
G37*
G36*
X37815Y109051D02*
X37840Y108998D01*
X37868Y108947D01*
X37898Y108901D01*
X37930Y108855D01*
X37963Y108813D01*
X37995Y108774D01*
X38025Y108737D01*
X38057Y108705D01*
X38085Y108677D01*
X38111Y108651D01*
X38134Y108631D01*
X38152Y108615D01*
X38168Y108601D01*
X38177Y108594D01*
X38180Y108591D01*
X38233Y108552D01*
X38284Y108515D01*
X38332Y108483D01*
X38381Y108453D01*
X38425Y108425D01*
X38469Y108402D01*
X38508Y108381D01*
X38545Y108361D01*
X38579Y108344D01*
X38609Y108330D01*
X38635Y108321D01*
X38658Y108312D01*
X38677Y108305D01*
X38688Y108300D01*
X38697Y108296D01*
X38700D01*
Y107739D01*
X38616Y107769D01*
X38536Y107801D01*
X38457Y107838D01*
X38383Y107875D01*
X38314Y107912D01*
X38249Y107952D01*
X38189Y107991D01*
X38134Y108028D01*
X38083Y108063D01*
X38039Y108097D01*
X38000Y108127D01*
X37967Y108153D01*
X37942Y108173D01*
X37923Y108189D01*
X37912Y108199D01*
X37907Y108203D01*
Y105896D01*
X37295D01*
Y109104D01*
X37794D01*
X37815Y109051D01*
D02*
G37*
G36*
X41705Y105896D02*
X41060D01*
Y107102D01*
X40561D01*
X40485Y107104D01*
X40416Y107106D01*
X40351Y107108D01*
X40291Y107111D01*
X40236Y107115D01*
X40187Y107120D01*
X40143Y107125D01*
X40102Y107127D01*
X40069Y107132D01*
X40039Y107136D01*
X40016Y107139D01*
X39996Y107141D01*
X39984Y107143D01*
X39975Y107145D01*
X39972D01*
X39908Y107162D01*
X39848Y107185D01*
X39792Y107210D01*
X39741Y107236D01*
X39718Y107247D01*
X39698Y107259D01*
X39681Y107270D01*
X39665Y107279D01*
X39654Y107286D01*
X39644Y107293D01*
X39640Y107296D01*
X39637Y107298D01*
X39580Y107344D01*
X39527Y107395D01*
X39480Y107448D01*
X39441Y107499D01*
X39409Y107543D01*
X39397Y107563D01*
X39386Y107580D01*
X39379Y107594D01*
X39372Y107603D01*
X39369Y107610D01*
X39367Y107612D01*
X39349Y107651D01*
X39330Y107691D01*
X39305Y107774D01*
X39284Y107857D01*
X39277Y107898D01*
X39272Y107935D01*
X39268Y107972D01*
X39263Y108005D01*
X39261Y108035D01*
Y108060D01*
X39259Y108081D01*
Y108095D01*
Y108106D01*
Y108109D01*
X39261Y108178D01*
X39265Y108245D01*
X39275Y108307D01*
X39289Y108367D01*
X39303Y108423D01*
X39319Y108474D01*
X39335Y108520D01*
X39351Y108561D01*
X39369Y108601D01*
X39386Y108633D01*
X39402Y108663D01*
X39416Y108686D01*
X39427Y108705D01*
X39437Y108719D01*
X39443Y108728D01*
X39446Y108730D01*
X39480Y108774D01*
X39517Y108813D01*
X39557Y108850D01*
X39596Y108882D01*
X39635Y108910D01*
X39672Y108936D01*
X39709Y108959D01*
X39744Y108977D01*
X39778Y108996D01*
X39808Y109010D01*
X39836Y109021D01*
X39859Y109030D01*
X39878Y109035D01*
X39894Y109040D01*
X39903Y109044D01*
X39905D01*
X39924Y109049D01*
X39942Y109054D01*
X39989Y109060D01*
X40042Y109067D01*
X40099Y109072D01*
X40162Y109077D01*
X40227Y109081D01*
X40356Y109086D01*
X40418Y109088D01*
X40476Y109090D01*
X40529D01*
X40578Y109093D01*
X41705D01*
Y105896D01*
D02*
G37*
%LPC*%
G36*
X41060Y108552D02*
X40631D01*
X40578Y108550D01*
X40531Y108548D01*
X40488D01*
X40451Y108545D01*
X40418Y108543D01*
X40388Y108541D01*
X40363Y108538D01*
X40342Y108536D01*
X40323Y108534D01*
X40310D01*
X40300Y108531D01*
X40291Y108529D01*
X40286D01*
X40231Y108515D01*
X40180Y108494D01*
X40136Y108471D01*
X40097Y108448D01*
X40067Y108423D01*
X40046Y108404D01*
X40033Y108390D01*
X40028Y108388D01*
Y108386D01*
X40009Y108365D01*
X39993Y108342D01*
X39968Y108293D01*
X39949Y108245D01*
X39938Y108199D01*
X39928Y108159D01*
X39926Y108141D01*
Y108127D01*
X39924Y108113D01*
Y108104D01*
Y108099D01*
Y108097D01*
X39926Y108046D01*
X39935Y107998D01*
X39947Y107956D01*
X39961Y107919D01*
X39975Y107889D01*
X39986Y107866D01*
X39991Y107859D01*
X39996Y107852D01*
X39998Y107850D01*
Y107848D01*
X40028Y107811D01*
X40060Y107778D01*
X40095Y107751D01*
X40127Y107730D01*
X40157Y107711D01*
X40180Y107700D01*
X40189Y107695D01*
X40194Y107693D01*
X40199Y107691D01*
X40201D01*
X40229Y107681D01*
X40259Y107674D01*
X40296Y107668D01*
X40335Y107663D01*
X40418Y107654D01*
X40504Y107649D01*
X40543Y107647D01*
X40582Y107644D01*
X40617D01*
X40647Y107642D01*
X41060D01*
Y108552D01*
D02*
G37*
%LPD*%
D11*
X32500Y56500D02*
X38500D01*
X32500D02*
Y153500D01*
X38500D01*
M02*
