G04*
G04 #@! TF.GenerationSoftware,Altium Limited,Altium Designer,23.5.1 (21)*
G04*
G04 Layer_Color=128*
%FSLAX25Y25*%
%MOIN*%
G70*
G04*
G04 #@! TF.SameCoordinates,759C71C3-0AE8-42CF-A238-0F2E4D7DB1F7*
G04*
G04*
G04 #@! TF.FilePolarity,Positive*
G04*
G01*
G75*
%ADD33C,0.00500*%
D33*
X222051Y69496D02*
X234650D01*
X228350Y63197D02*
Y75795D01*
X222051Y148236D02*
X234650D01*
X228350Y141937D02*
Y154535D01*
X253547Y69496D02*
X266146D01*
X259846Y63197D02*
Y75795D01*
X253547Y148236D02*
X266146D01*
X259846Y141937D02*
Y154535D01*
X250205Y221579D02*
X262803D01*
X256504Y215280D02*
Y227878D01*
X250205Y28665D02*
X262803D01*
X256504Y22366D02*
Y34965D01*
X21858Y28665D02*
X34457D01*
X28157Y22366D02*
Y34965D01*
X21858Y221579D02*
X34457D01*
X28157Y215280D02*
Y227878D01*
X145102Y70894D02*
X149433D01*
X147268Y68728D02*
Y73059D01*
X144118Y149634D02*
X150417D01*
X147268Y146484D02*
Y152784D01*
X253547Y108866D02*
X266146D01*
X259846Y102567D02*
Y115165D01*
X75071Y122878D02*
X76055D01*
X75563Y122385D02*
Y123370D01*
X78409Y127364D02*
X79590D01*
X79000Y126774D02*
Y127955D01*
X78409Y124796D02*
X79590D01*
X79000Y124205D02*
Y125386D01*
X48693Y128000D02*
X49677D01*
X49185Y127508D02*
Y128492D01*
X48693Y124500D02*
X49677D01*
X49185Y124008D02*
Y124992D01*
X61016Y57500D02*
X62984D01*
X62000Y56516D02*
Y58484D01*
X61016Y65000D02*
X62984D01*
X62000Y64016D02*
Y65984D01*
X117016Y149000D02*
X118984D01*
X118000Y148016D02*
Y149984D01*
X147516Y140500D02*
X149484D01*
X148500Y139516D02*
Y141484D01*
X180016Y150500D02*
X181984D01*
X181000Y149516D02*
Y151484D01*
X180016Y138500D02*
X181984D01*
X181000Y137516D02*
Y139484D01*
X180016Y82000D02*
X181984D01*
X181000Y81016D02*
Y82984D01*
X180016Y75000D02*
X181984D01*
X181000Y74016D02*
Y75984D01*
X180016Y88500D02*
X181984D01*
X181000Y87516D02*
Y89484D01*
X180016Y144500D02*
X181984D01*
X181000Y143516D02*
Y145484D01*
X126516Y179000D02*
X128484D01*
X127500Y178016D02*
Y179984D01*
X118016Y179000D02*
X119984D01*
X119000Y178016D02*
Y179984D01*
X109516Y179000D02*
X111484D01*
X110500Y178016D02*
Y179984D01*
X101016Y179000D02*
X102984D01*
X102000Y178016D02*
Y179984D01*
X92516Y179000D02*
X94484D01*
X93500Y178016D02*
Y179984D01*
X84016Y179000D02*
X85984D01*
X85000Y178016D02*
Y179984D01*
X102516Y149500D02*
X104484D01*
X103500Y148516D02*
Y150484D01*
X94016Y149500D02*
X95984D01*
X95000Y148516D02*
Y150484D01*
X85516Y149500D02*
X87484D01*
X86500Y148516D02*
Y150484D01*
X77016Y149500D02*
X78984D01*
X78000Y148516D02*
Y150484D01*
X68016Y149500D02*
X69984D01*
X69000Y148516D02*
Y150484D01*
X148508Y134500D02*
X149492D01*
X149000Y134008D02*
Y134992D01*
X140008Y126500D02*
X140992D01*
X140500Y126008D02*
Y126992D01*
X143008Y139000D02*
X143992D01*
X143500Y138508D02*
Y139492D01*
X136508Y131000D02*
X137492D01*
X137000Y130508D02*
Y131492D01*
X132508Y131000D02*
X133492D01*
X133000Y130508D02*
Y131492D01*
X132508Y127500D02*
X133492D01*
X133000Y127008D02*
Y127992D01*
X132508Y124000D02*
X133492D01*
X133000Y123508D02*
Y124492D01*
X132508Y120500D02*
X133492D01*
X133000Y120008D02*
Y120992D01*
X132508Y117000D02*
X133492D01*
X133000Y116508D02*
Y117492D01*
X132508Y113500D02*
X133492D01*
X133000Y113008D02*
Y113992D01*
X132508Y110000D02*
X133492D01*
X133000Y109508D02*
Y110492D01*
X132508Y106500D02*
X133492D01*
X133000Y106008D02*
Y106992D01*
X132508Y103000D02*
X133492D01*
X133000Y102508D02*
Y103492D01*
X132508Y99500D02*
X133492D01*
X133000Y99008D02*
Y99992D01*
X132508Y96000D02*
X133492D01*
X133000Y95508D02*
Y96492D01*
X132508Y92500D02*
X133492D01*
X133000Y92008D02*
Y92992D01*
X132508Y89000D02*
X133492D01*
X133000Y88508D02*
Y89492D01*
X132508Y85500D02*
X133492D01*
X133000Y85008D02*
Y85992D01*
X132508Y82000D02*
X133492D01*
X133000Y81508D02*
Y82492D01*
X132508Y78500D02*
X133492D01*
X133000Y78008D02*
Y78992D01*
X132508Y75000D02*
X133492D01*
X133000Y74508D02*
Y75492D01*
X48693Y72000D02*
X49677D01*
X49185Y71508D02*
Y72492D01*
X48693Y75500D02*
X49677D01*
X49185Y75008D02*
Y75992D01*
X48693Y79000D02*
X49677D01*
X49185Y78508D02*
Y79492D01*
X48693Y82500D02*
X49677D01*
X49185Y82008D02*
Y82992D01*
X48693Y86000D02*
X49677D01*
X49185Y85508D02*
Y86492D01*
X48693Y89500D02*
X49677D01*
X49185Y89008D02*
Y89992D01*
X48693Y93000D02*
X49677D01*
X49185Y92508D02*
Y93492D01*
X48693Y96500D02*
X49677D01*
X49185Y96008D02*
Y96992D01*
X48693Y100000D02*
X49677D01*
X49185Y99508D02*
Y100492D01*
X48693Y103500D02*
X49677D01*
X49185Y103008D02*
Y103992D01*
X48693Y107000D02*
X49677D01*
X49185Y106508D02*
Y107492D01*
X48693Y110500D02*
X49677D01*
X49185Y110008D02*
Y110992D01*
X48693Y114000D02*
X49677D01*
X49185Y113508D02*
Y114492D01*
X48693Y117500D02*
X49677D01*
X49185Y117008D02*
Y117992D01*
X48693Y121000D02*
X49677D01*
X49185Y120508D02*
Y121492D01*
X48693Y131500D02*
X49677D01*
X49185Y131008D02*
Y131992D01*
X48693Y135000D02*
X49677D01*
X49185Y134508D02*
Y135492D01*
X48693Y138500D02*
X49677D01*
X49185Y138008D02*
Y138992D01*
X75071Y75774D02*
X76055D01*
X75563Y75282D02*
Y76266D01*
X75071Y81790D02*
X76055D01*
X75563Y81298D02*
Y82282D01*
X75071Y87682D02*
X76055D01*
X75563Y87190D02*
Y88174D01*
X75071Y93570D02*
X76055D01*
X75563Y93077D02*
Y94062D01*
X75071Y99467D02*
X76055D01*
X75563Y98974D02*
Y99959D01*
X75071Y105331D02*
X76055D01*
X75563Y104839D02*
Y105823D01*
X75145Y129061D02*
X76130D01*
X75637Y128569D02*
Y129553D01*
X75071Y111317D02*
X76055D01*
X75563Y110825D02*
Y111810D01*
X75071Y117130D02*
X76055D01*
X75563Y116638D02*
Y117622D01*
X53516Y147000D02*
X55484D01*
X54500Y146016D02*
Y147984D01*
X58016Y147000D02*
X59984D01*
X59000Y146016D02*
Y147984D01*
X58016Y151500D02*
X59984D01*
X59000Y150516D02*
Y152484D01*
X53516Y151500D02*
X55484D01*
X54500Y150516D02*
Y152484D01*
X137838Y136467D02*
X138822D01*
X138330Y135975D02*
Y136959D01*
X139508Y132000D02*
X140492D01*
X140000Y131508D02*
Y132492D01*
X142555Y134547D02*
X143539D01*
X143047Y134055D02*
Y135039D01*
X76910Y77483D02*
X78091D01*
X77500Y76893D02*
Y78074D01*
X76910Y80052D02*
X78091D01*
X77500Y79461D02*
Y80642D01*
X76910Y89294D02*
X78091D01*
X77500Y88704D02*
Y89885D01*
X76910Y91863D02*
X78091D01*
X77500Y91272D02*
Y92453D01*
X76910Y101105D02*
X78091D01*
X77500Y100515D02*
Y101696D01*
X76910Y103674D02*
X78091D01*
X77500Y103084D02*
Y104265D01*
X76910Y112917D02*
X78091D01*
X77500Y112326D02*
Y113507D01*
X76910Y115485D02*
X78091D01*
X77500Y114894D02*
Y116076D01*
X70910Y86055D02*
X72091D01*
X71500Y85465D02*
Y86646D01*
X70910Y83487D02*
X72091D01*
X71500Y82896D02*
Y84077D01*
X70910Y97791D02*
X72091D01*
X71500Y97201D02*
Y98382D01*
X70910Y95223D02*
X72091D01*
X71500Y94632D02*
Y95813D01*
X70910Y109546D02*
X72091D01*
X71500Y108955D02*
Y110136D01*
X70910Y106977D02*
X72091D01*
X71500Y106387D02*
Y107568D01*
X70910Y121293D02*
X72091D01*
X71500Y120703D02*
Y121884D01*
X70910Y118725D02*
X72091D01*
X71500Y118134D02*
Y119315D01*
M02*
