G04*
G04 #@! TF.GenerationSoftware,Altium Limited,Altium Designer,23.5.1 (21)*
G04*
G04 Layer_Color=8388736*
%FSLAX25Y25*%
%MOIN*%
G70*
G04*
G04 #@! TF.SameCoordinates,759C71C3-0AE8-42CF-A238-0F2E4D7DB1F7*
G04*
G04*
G04 #@! TF.FilePolarity,Negative*
G04*
G01*
G75*
%ADD17R,0.10827X0.04724*%
%ADD18R,0.06693X0.01181*%
%ADD20R,0.05367X0.06587*%
%ADD21R,0.04461X0.04658*%
%ADD22R,0.02959X0.02762*%
%ADD23R,0.04658X0.04461*%
%ADD24R,0.02762X0.02959*%
D17*
X129551Y151012D02*
D03*
Y69516D02*
D03*
D18*
X126500Y138807D02*
D03*
Y146681D02*
D03*
X156224Y145697D02*
D03*
X126500Y144713D02*
D03*
X156224Y143728D02*
D03*
X126500Y142744D02*
D03*
X156224Y141760D02*
D03*
X126500Y140776D02*
D03*
X156224Y139791D02*
D03*
Y129949D02*
D03*
X126500Y128965D02*
D03*
X156224Y127980D02*
D03*
X126500Y126996D02*
D03*
X156224Y126012D02*
D03*
X126500Y125028D02*
D03*
X156224Y124043D02*
D03*
X126500Y123059D02*
D03*
X156224Y122075D02*
D03*
X126500Y121091D02*
D03*
X156224Y120106D02*
D03*
X126500Y119122D02*
D03*
X156224Y118138D02*
D03*
X126500Y117154D02*
D03*
X156224Y116169D02*
D03*
X126500Y115185D02*
D03*
X156224Y114201D02*
D03*
X126500Y113216D02*
D03*
X156224Y112232D02*
D03*
X126500Y111248D02*
D03*
X156224Y110264D02*
D03*
X126500Y109280D02*
D03*
X156224Y108295D02*
D03*
X126500Y107311D02*
D03*
X156224Y106327D02*
D03*
X126500Y105342D02*
D03*
X156224Y104358D02*
D03*
X126500Y103374D02*
D03*
X156224Y102390D02*
D03*
X126500Y101406D02*
D03*
X156224Y100421D02*
D03*
X126500Y99437D02*
D03*
X156224Y98453D02*
D03*
X126500Y97469D02*
D03*
X156224Y96484D02*
D03*
X126500Y95500D02*
D03*
X156224Y94516D02*
D03*
X126500Y93532D02*
D03*
X156224Y92547D02*
D03*
X126500Y91563D02*
D03*
X156224Y90579D02*
D03*
X126500Y89595D02*
D03*
X156224Y88610D02*
D03*
X126500Y87626D02*
D03*
X156224Y86642D02*
D03*
X126500Y85658D02*
D03*
X156224Y84673D02*
D03*
X126500Y83689D02*
D03*
X156224Y82705D02*
D03*
X126500Y81721D02*
D03*
X156224Y80736D02*
D03*
X126500Y79752D02*
D03*
X156224Y78768D02*
D03*
X126500Y77784D02*
D03*
X156224Y76799D02*
D03*
X126500Y75815D02*
D03*
X156224Y74831D02*
D03*
X126500Y73847D02*
D03*
D20*
X82496Y157000D02*
D03*
X89504D02*
D03*
X82496Y165000D02*
D03*
X89504D02*
D03*
D21*
X173031Y75500D02*
D03*
X166969D02*
D03*
X69000Y178500D02*
D03*
X62937D02*
D03*
X173031Y88500D02*
D03*
X166969D02*
D03*
X173031Y144500D02*
D03*
X166969D02*
D03*
D22*
X63000Y170173D02*
D03*
Y166827D02*
D03*
D23*
X96500Y171031D02*
D03*
Y164969D02*
D03*
X102500Y171031D02*
D03*
Y164969D02*
D03*
X75500Y171031D02*
D03*
Y164969D02*
D03*
X69500Y171031D02*
D03*
Y164969D02*
D03*
D24*
X110654Y122000D02*
D03*
X114000D02*
D03*
X110654Y118018D02*
D03*
X114000D02*
D03*
X99654Y128080D02*
D03*
X103000D02*
D03*
X99654Y124080D02*
D03*
X103000D02*
D03*
X110654Y82770D02*
D03*
X114000D02*
D03*
X110654Y86772D02*
D03*
X114000D02*
D03*
X110654Y98500D02*
D03*
X114000D02*
D03*
X110654Y94515D02*
D03*
X114000D02*
D03*
X110654Y110264D02*
D03*
X114000D02*
D03*
X110654Y106260D02*
D03*
X114000D02*
D03*
M02*
