M48
;Layer_Color=9474304
;FILE_FORMAT=2:5
INCH,LZ
;TYPE=PLATED
T1F00S00C0.00984
T2F00S00C0.01181
T3F00S00C0.01968
T4F00S00C0.04331
T5F00S00C0.06299
T6F00S00C0.12598
%
T01
X0133Y0075
Y00785
Y0082
Y00855
Y0089
Y00925
Y0096
Y00995
Y0103
Y01065
Y011
Y01135
Y0117
Y01205
Y0124
Y01275
Y0131
X0137
X014Y0132
X0143047Y0134547
X01435Y0139
X013833Y0136467
X01405Y01265
X0149Y01345
X0075637Y0129061
X0075563Y0122878
Y011713
Y0111317
Y0105331
Y0099467
Y009357
Y0087682
Y008179
Y0075774
X0049185Y00755
Y0072
Y0079
Y00825
Y0086
Y00895
Y0093
Y00965
Y01
Y01035
Y0107
Y01105
Y0114
Y01175
Y0121
Y01245
Y0128
Y01315
Y0135
Y01385
T02
X00775Y0077483
Y0080052
Y0089294
Y0091863
Y0101105
Y0103674
Y0112917
Y0115485
X00715Y0118725
Y0121293
X0079Y0124796
Y0127364
X00715Y0109546
Y0106977
Y0097791
Y0095223
Y0086055
Y0083487
T03
X01035Y01495
X0118Y0149
X01485Y01405
X0181Y01385
Y01445
Y01505
Y00885
Y0082
Y0075
X0062Y0065
Y00575
X0059Y0147
X00545
Y01515
X0059
X0069Y01495
X0078
X00865
X0095
X00935Y0179
X0085
X0102
X01105
X0119
X01275
T04
X0147268Y0070894
T05
X0147268Y0149634
T06
X0259846Y0069496
Y0108866
Y0148236
X022835
Y0069496
X0256504Y0028665
X0028157
Y0221579
X0256504
M30
