G04*
G04 #@! TF.GenerationSoftware,Altium Limited,Altium Designer,23.5.1 (21)*
G04*
G04 Layer_Color=2752767*
%FSLAX25Y25*%
%MOIN*%
G70*
G04*
G04 #@! TF.SameCoordinates,759C71C3-0AE8-42CF-A238-0F2E4D7DB1F7*
G04*
G04*
G04 #@! TF.FilePolarity,Positive*
G04*
G01*
G75*
%ADD33C,0.00500*%
%ADD34C,0.00667*%
D33*
X228350Y67496D02*
X229350Y68496D01*
X230350D01*
X229350Y69496D01*
X230350Y70496D01*
X229350D01*
X228350Y71496D01*
X227350Y70496D01*
X226350D01*
X227350Y69496D01*
X226350Y68496D01*
X227350D01*
X228350Y67496D01*
Y146236D02*
X229350Y147236D01*
X230350D01*
X229350Y148236D01*
X230350Y149236D01*
X229350D01*
X228350Y150236D01*
X227350Y149236D01*
X226350D01*
X227350Y148236D01*
X226350Y147236D01*
X227350D01*
X228350Y146236D01*
X259846Y67496D02*
X260846Y68496D01*
X261846D01*
X260846Y69496D01*
X261846Y70496D01*
X260846D01*
X259846Y71496D01*
X258846Y70496D01*
X257846D01*
X258846Y69496D01*
X257846Y68496D01*
X258846D01*
X259846Y67496D01*
Y146236D02*
X260846Y147236D01*
X261846D01*
X260846Y148236D01*
X261846Y149236D01*
X260846D01*
X259846Y150236D01*
X258846Y149236D01*
X257846D01*
X258846Y148236D01*
X257846Y147236D01*
X258846D01*
X259846Y146236D01*
X256504Y219579D02*
X257504Y220579D01*
X258504D01*
X257504Y221579D01*
X258504Y222579D01*
X257504D01*
X256504Y223579D01*
X255504Y222579D01*
X254504D01*
X255504Y221579D01*
X254504Y220579D01*
X255504D01*
X256504Y219579D01*
Y26665D02*
X257504Y27665D01*
X258504D01*
X257504Y28665D01*
X258504Y29665D01*
X257504D01*
X256504Y30665D01*
X255504Y29665D01*
X254504D01*
X255504Y28665D01*
X254504Y27665D01*
X255504D01*
X256504Y26665D01*
X28157D02*
X29158Y27665D01*
X30158D01*
X29158Y28665D01*
X30158Y29665D01*
X29158D01*
X28157Y30665D01*
X27158Y29665D01*
X26158D01*
X27158Y28665D01*
X26158Y27665D01*
X27158D01*
X28157Y26665D01*
Y219579D02*
X29158Y220579D01*
X30158D01*
X29158Y221579D01*
X30158Y222579D01*
X29158D01*
X28157Y223579D01*
X27158Y222579D01*
X26158D01*
X27158Y221579D01*
X26158Y220579D01*
X27158D01*
X28157Y219579D01*
X145268Y68894D02*
Y72894D01*
X149268D01*
Y68894D01*
X145268D01*
X259846Y106866D02*
X260846Y107866D01*
X261846D01*
X260846Y108866D01*
X261846Y109866D01*
X260846D01*
X259846Y110866D01*
X258846Y109866D01*
X257846D01*
X258846Y108866D01*
X257846Y107866D01*
X258846D01*
X259846Y106866D01*
X73563Y120878D02*
X74563Y122878D01*
X73563Y124878D01*
X75563Y123878D01*
X77563Y124878D01*
X76563Y122878D01*
X77563Y120878D01*
X75563Y121878D01*
X73563Y120878D01*
X79000Y125364D02*
X77000Y129364D01*
X81000D01*
X79000Y125364D01*
Y122796D02*
X77000Y126796D01*
X81000D01*
X79000Y122796D01*
X47185Y126000D02*
X48185Y128000D01*
X47185Y130000D01*
X49185Y129000D01*
X51185Y130000D01*
X50185Y128000D01*
X51185Y126000D01*
X49185Y127000D01*
X47185Y126000D01*
Y122500D02*
X48185Y124500D01*
X47185Y126500D01*
X49185Y125500D01*
X51185Y126500D01*
X50185Y124500D01*
X51185Y122500D01*
X49185Y123500D01*
X47185Y122500D01*
X61000Y56500D02*
Y55500D01*
X63000D01*
Y56500D01*
X64000D01*
Y58500D01*
X63000D01*
Y59500D01*
X61000D01*
Y58500D01*
X60000D01*
Y56500D01*
X61000D01*
Y64000D02*
Y63000D01*
X63000D01*
Y64000D01*
X64000D01*
Y66000D01*
X63000D01*
Y67000D01*
X61000D01*
Y66000D01*
X60000D01*
Y64000D01*
X61000D01*
X117000Y148000D02*
Y147000D01*
X119000D01*
Y148000D01*
X120000D01*
Y150000D01*
X119000D01*
Y151000D01*
X117000D01*
Y150000D01*
X116000D01*
Y148000D01*
X117000D01*
X147500Y139500D02*
Y138500D01*
X149500D01*
Y139500D01*
X150500D01*
Y141500D01*
X149500D01*
Y142500D01*
X147500D01*
Y141500D01*
X146500D01*
Y139500D01*
X147500D01*
X180000Y149500D02*
Y148500D01*
X182000D01*
Y149500D01*
X183000D01*
Y151500D01*
X182000D01*
Y152500D01*
X180000D01*
Y151500D01*
X179000D01*
Y149500D01*
X180000D01*
Y137500D02*
Y136500D01*
X182000D01*
Y137500D01*
X183000D01*
Y139500D01*
X182000D01*
Y140500D01*
X180000D01*
Y139500D01*
X179000D01*
Y137500D01*
X180000D01*
Y81000D02*
Y80000D01*
X182000D01*
Y81000D01*
X183000D01*
Y83000D01*
X182000D01*
Y84000D01*
X180000D01*
Y83000D01*
X179000D01*
Y81000D01*
X180000D01*
Y74000D02*
Y73000D01*
X182000D01*
Y74000D01*
X183000D01*
Y76000D01*
X182000D01*
Y77000D01*
X180000D01*
Y76000D01*
X179000D01*
Y74000D01*
X180000D01*
Y87500D02*
Y86500D01*
X182000D01*
Y87500D01*
X183000D01*
Y89500D01*
X182000D01*
Y90500D01*
X180000D01*
Y89500D01*
X179000D01*
Y87500D01*
X180000D01*
Y143500D02*
Y142500D01*
X182000D01*
Y143500D01*
X183000D01*
Y145500D01*
X182000D01*
Y146500D01*
X180000D01*
Y145500D01*
X179000D01*
Y143500D01*
X180000D01*
X126500Y178000D02*
Y177000D01*
X128500D01*
Y178000D01*
X129500D01*
Y180000D01*
X128500D01*
Y181000D01*
X126500D01*
Y180000D01*
X125500D01*
Y178000D01*
X126500D01*
X118000D02*
Y177000D01*
X120000D01*
Y178000D01*
X121000D01*
Y180000D01*
X120000D01*
Y181000D01*
X118000D01*
Y180000D01*
X117000D01*
Y178000D01*
X118000D01*
X109500D02*
Y177000D01*
X111500D01*
Y178000D01*
X112500D01*
Y180000D01*
X111500D01*
Y181000D01*
X109500D01*
Y180000D01*
X108500D01*
Y178000D01*
X109500D01*
X101000D02*
Y177000D01*
X103000D01*
Y178000D01*
X104000D01*
Y180000D01*
X103000D01*
Y181000D01*
X101000D01*
Y180000D01*
X100000D01*
Y178000D01*
X101000D01*
X92500D02*
Y177000D01*
X94500D01*
Y178000D01*
X95500D01*
Y180000D01*
X94500D01*
Y181000D01*
X92500D01*
Y180000D01*
X91500D01*
Y178000D01*
X92500D01*
X84000D02*
Y177000D01*
X86000D01*
Y178000D01*
X87000D01*
Y180000D01*
X86000D01*
Y181000D01*
X84000D01*
Y180000D01*
X83000D01*
Y178000D01*
X84000D01*
X102500Y148500D02*
Y147500D01*
X104500D01*
Y148500D01*
X105500D01*
Y150500D01*
X104500D01*
Y151500D01*
X102500D01*
Y150500D01*
X101500D01*
Y148500D01*
X102500D01*
X94000D02*
Y147500D01*
X96000D01*
Y148500D01*
X97000D01*
Y150500D01*
X96000D01*
Y151500D01*
X94000D01*
Y150500D01*
X93000D01*
Y148500D01*
X94000D01*
X85500D02*
Y147500D01*
X87500D01*
Y148500D01*
X88500D01*
Y150500D01*
X87500D01*
Y151500D01*
X85500D01*
Y150500D01*
X84500D01*
Y148500D01*
X85500D01*
X77000D02*
Y147500D01*
X79000D01*
Y148500D01*
X80000D01*
Y150500D01*
X79000D01*
Y151500D01*
X77000D01*
Y150500D01*
X76000D01*
Y148500D01*
X77000D01*
X68000D02*
Y147500D01*
X70000D01*
Y148500D01*
X71000D01*
Y150500D01*
X70000D01*
Y151500D01*
X68000D01*
Y150500D01*
X67000D01*
Y148500D01*
X68000D01*
X147000Y132500D02*
X148000Y134500D01*
X147000Y136500D01*
X149000Y135500D01*
X151000Y136500D01*
X150000Y134500D01*
X151000Y132500D01*
X149000Y133500D01*
X147000Y132500D01*
X138500Y124500D02*
X139500Y126500D01*
X138500Y128500D01*
X140500Y127500D01*
X142500Y128500D01*
X141500Y126500D01*
X142500Y124500D01*
X140500Y125500D01*
X138500Y124500D01*
X141500Y137000D02*
X142500Y139000D01*
X141500Y141000D01*
X143500Y140000D01*
X145500Y141000D01*
X144500Y139000D01*
X145500Y137000D01*
X143500Y138000D01*
X141500Y137000D01*
X135000Y129000D02*
X136000Y131000D01*
X135000Y133000D01*
X137000Y132000D01*
X139000Y133000D01*
X138000Y131000D01*
X139000Y129000D01*
X137000Y130000D01*
X135000Y129000D01*
X131000D02*
X132000Y131000D01*
X131000Y133000D01*
X133000Y132000D01*
X135000Y133000D01*
X134000Y131000D01*
X135000Y129000D01*
X133000Y130000D01*
X131000Y129000D01*
Y125500D02*
X132000Y127500D01*
X131000Y129500D01*
X133000Y128500D01*
X135000Y129500D01*
X134000Y127500D01*
X135000Y125500D01*
X133000Y126500D01*
X131000Y125500D01*
Y122000D02*
X132000Y124000D01*
X131000Y126000D01*
X133000Y125000D01*
X135000Y126000D01*
X134000Y124000D01*
X135000Y122000D01*
X133000Y123000D01*
X131000Y122000D01*
Y118500D02*
X132000Y120500D01*
X131000Y122500D01*
X133000Y121500D01*
X135000Y122500D01*
X134000Y120500D01*
X135000Y118500D01*
X133000Y119500D01*
X131000Y118500D01*
Y115000D02*
X132000Y117000D01*
X131000Y119000D01*
X133000Y118000D01*
X135000Y119000D01*
X134000Y117000D01*
X135000Y115000D01*
X133000Y116000D01*
X131000Y115000D01*
Y111500D02*
X132000Y113500D01*
X131000Y115500D01*
X133000Y114500D01*
X135000Y115500D01*
X134000Y113500D01*
X135000Y111500D01*
X133000Y112500D01*
X131000Y111500D01*
Y108000D02*
X132000Y110000D01*
X131000Y112000D01*
X133000Y111000D01*
X135000Y112000D01*
X134000Y110000D01*
X135000Y108000D01*
X133000Y109000D01*
X131000Y108000D01*
Y104500D02*
X132000Y106500D01*
X131000Y108500D01*
X133000Y107500D01*
X135000Y108500D01*
X134000Y106500D01*
X135000Y104500D01*
X133000Y105500D01*
X131000Y104500D01*
Y101000D02*
X132000Y103000D01*
X131000Y105000D01*
X133000Y104000D01*
X135000Y105000D01*
X134000Y103000D01*
X135000Y101000D01*
X133000Y102000D01*
X131000Y101000D01*
Y97500D02*
X132000Y99500D01*
X131000Y101500D01*
X133000Y100500D01*
X135000Y101500D01*
X134000Y99500D01*
X135000Y97500D01*
X133000Y98500D01*
X131000Y97500D01*
Y94000D02*
X132000Y96000D01*
X131000Y98000D01*
X133000Y97000D01*
X135000Y98000D01*
X134000Y96000D01*
X135000Y94000D01*
X133000Y95000D01*
X131000Y94000D01*
Y90500D02*
X132000Y92500D01*
X131000Y94500D01*
X133000Y93500D01*
X135000Y94500D01*
X134000Y92500D01*
X135000Y90500D01*
X133000Y91500D01*
X131000Y90500D01*
Y87000D02*
X132000Y89000D01*
X131000Y91000D01*
X133000Y90000D01*
X135000Y91000D01*
X134000Y89000D01*
X135000Y87000D01*
X133000Y88000D01*
X131000Y87000D01*
Y83500D02*
X132000Y85500D01*
X131000Y87500D01*
X133000Y86500D01*
X135000Y87500D01*
X134000Y85500D01*
X135000Y83500D01*
X133000Y84500D01*
X131000Y83500D01*
Y80000D02*
X132000Y82000D01*
X131000Y84000D01*
X133000Y83000D01*
X135000Y84000D01*
X134000Y82000D01*
X135000Y80000D01*
X133000Y81000D01*
X131000Y80000D01*
Y76500D02*
X132000Y78500D01*
X131000Y80500D01*
X133000Y79500D01*
X135000Y80500D01*
X134000Y78500D01*
X135000Y76500D01*
X133000Y77500D01*
X131000Y76500D01*
Y73000D02*
X132000Y75000D01*
X131000Y77000D01*
X133000Y76000D01*
X135000Y77000D01*
X134000Y75000D01*
X135000Y73000D01*
X133000Y74000D01*
X131000Y73000D01*
X47185Y70000D02*
X48185Y72000D01*
X47185Y74000D01*
X49185Y73000D01*
X51185Y74000D01*
X50185Y72000D01*
X51185Y70000D01*
X49185Y71000D01*
X47185Y70000D01*
Y73500D02*
X48185Y75500D01*
X47185Y77500D01*
X49185Y76500D01*
X51185Y77500D01*
X50185Y75500D01*
X51185Y73500D01*
X49185Y74500D01*
X47185Y73500D01*
Y77000D02*
X48185Y79000D01*
X47185Y81000D01*
X49185Y80000D01*
X51185Y81000D01*
X50185Y79000D01*
X51185Y77000D01*
X49185Y78000D01*
X47185Y77000D01*
Y80500D02*
X48185Y82500D01*
X47185Y84500D01*
X49185Y83500D01*
X51185Y84500D01*
X50185Y82500D01*
X51185Y80500D01*
X49185Y81500D01*
X47185Y80500D01*
Y84000D02*
X48185Y86000D01*
X47185Y88000D01*
X49185Y87000D01*
X51185Y88000D01*
X50185Y86000D01*
X51185Y84000D01*
X49185Y85000D01*
X47185Y84000D01*
Y87500D02*
X48185Y89500D01*
X47185Y91500D01*
X49185Y90500D01*
X51185Y91500D01*
X50185Y89500D01*
X51185Y87500D01*
X49185Y88500D01*
X47185Y87500D01*
Y91000D02*
X48185Y93000D01*
X47185Y95000D01*
X49185Y94000D01*
X51185Y95000D01*
X50185Y93000D01*
X51185Y91000D01*
X49185Y92000D01*
X47185Y91000D01*
Y94500D02*
X48185Y96500D01*
X47185Y98500D01*
X49185Y97500D01*
X51185Y98500D01*
X50185Y96500D01*
X51185Y94500D01*
X49185Y95500D01*
X47185Y94500D01*
Y98000D02*
X48185Y100000D01*
X47185Y102000D01*
X49185Y101000D01*
X51185Y102000D01*
X50185Y100000D01*
X51185Y98000D01*
X49185Y99000D01*
X47185Y98000D01*
Y101500D02*
X48185Y103500D01*
X47185Y105500D01*
X49185Y104500D01*
X51185Y105500D01*
X50185Y103500D01*
X51185Y101500D01*
X49185Y102500D01*
X47185Y101500D01*
Y105000D02*
X48185Y107000D01*
X47185Y109000D01*
X49185Y108000D01*
X51185Y109000D01*
X50185Y107000D01*
X51185Y105000D01*
X49185Y106000D01*
X47185Y105000D01*
Y108500D02*
X48185Y110500D01*
X47185Y112500D01*
X49185Y111500D01*
X51185Y112500D01*
X50185Y110500D01*
X51185Y108500D01*
X49185Y109500D01*
X47185Y108500D01*
Y112000D02*
X48185Y114000D01*
X47185Y116000D01*
X49185Y115000D01*
X51185Y116000D01*
X50185Y114000D01*
X51185Y112000D01*
X49185Y113000D01*
X47185Y112000D01*
Y115500D02*
X48185Y117500D01*
X47185Y119500D01*
X49185Y118500D01*
X51185Y119500D01*
X50185Y117500D01*
X51185Y115500D01*
X49185Y116500D01*
X47185Y115500D01*
Y119000D02*
X48185Y121000D01*
X47185Y123000D01*
X49185Y122000D01*
X51185Y123000D01*
X50185Y121000D01*
X51185Y119000D01*
X49185Y120000D01*
X47185Y119000D01*
Y129500D02*
X48185Y131500D01*
X47185Y133500D01*
X49185Y132500D01*
X51185Y133500D01*
X50185Y131500D01*
X51185Y129500D01*
X49185Y130500D01*
X47185Y129500D01*
Y133000D02*
X48185Y135000D01*
X47185Y137000D01*
X49185Y136000D01*
X51185Y137000D01*
X50185Y135000D01*
X51185Y133000D01*
X49185Y134000D01*
X47185Y133000D01*
Y136500D02*
X48185Y138500D01*
X47185Y140500D01*
X49185Y139500D01*
X51185Y140500D01*
X50185Y138500D01*
X51185Y136500D01*
X49185Y137500D01*
X47185Y136500D01*
X73563Y73774D02*
X74563Y75774D01*
X73563Y77774D01*
X75563Y76774D01*
X77563Y77774D01*
X76563Y75774D01*
X77563Y73774D01*
X75563Y74774D01*
X73563Y73774D01*
Y79790D02*
X74563Y81790D01*
X73563Y83790D01*
X75563Y82790D01*
X77563Y83790D01*
X76563Y81790D01*
X77563Y79790D01*
X75563Y80790D01*
X73563Y79790D01*
Y85682D02*
X74563Y87682D01*
X73563Y89682D01*
X75563Y88682D01*
X77563Y89682D01*
X76563Y87682D01*
X77563Y85682D01*
X75563Y86682D01*
X73563Y85682D01*
Y91570D02*
X74563Y93570D01*
X73563Y95570D01*
X75563Y94570D01*
X77563Y95570D01*
X76563Y93570D01*
X77563Y91570D01*
X75563Y92570D01*
X73563Y91570D01*
Y97467D02*
X74563Y99467D01*
X73563Y101467D01*
X75563Y100467D01*
X77563Y101467D01*
X76563Y99467D01*
X77563Y97467D01*
X75563Y98467D01*
X73563Y97467D01*
Y103331D02*
X74563Y105331D01*
X73563Y107331D01*
X75563Y106331D01*
X77563Y107331D01*
X76563Y105331D01*
X77563Y103331D01*
X75563Y104331D01*
X73563Y103331D01*
X73637Y127061D02*
X74637Y129061D01*
X73637Y131061D01*
X75637Y130061D01*
X77637Y131061D01*
X76637Y129061D01*
X77637Y127061D01*
X75637Y128061D01*
X73637Y127061D01*
X73563Y109317D02*
X74563Y111317D01*
X73563Y113317D01*
X75563Y112317D01*
X77563Y113317D01*
X76563Y111317D01*
X77563Y109317D01*
X75563Y110317D01*
X73563Y109317D01*
Y115130D02*
X74563Y117130D01*
X73563Y119130D01*
X75563Y118130D01*
X77563Y119130D01*
X76563Y117130D01*
X77563Y115130D01*
X75563Y116130D01*
X73563Y115130D01*
X53500Y146000D02*
Y145000D01*
X55500D01*
Y146000D01*
X56500D01*
Y148000D01*
X55500D01*
Y149000D01*
X53500D01*
Y148000D01*
X52500D01*
Y146000D01*
X53500D01*
X58000D02*
Y145000D01*
X60000D01*
Y146000D01*
X61000D01*
Y148000D01*
X60000D01*
Y149000D01*
X58000D01*
Y148000D01*
X57000D01*
Y146000D01*
X58000D01*
Y150500D02*
Y149500D01*
X60000D01*
Y150500D01*
X61000D01*
Y152500D01*
X60000D01*
Y153500D01*
X58000D01*
Y152500D01*
X57000D01*
Y150500D01*
X58000D01*
X53500D02*
Y149500D01*
X55500D01*
Y150500D01*
X56500D01*
Y152500D01*
X55500D01*
Y153500D01*
X53500D01*
Y152500D01*
X52500D01*
Y150500D01*
X53500D01*
X136330Y134467D02*
X137330Y136467D01*
X136330Y138467D01*
X138330Y137467D01*
X140330Y138467D01*
X139330Y136467D01*
X140330Y134467D01*
X138330Y135467D01*
X136330Y134467D01*
X138000Y130000D02*
X139000Y132000D01*
X138000Y134000D01*
X140000Y133000D01*
X142000Y134000D01*
X141000Y132000D01*
X142000Y130000D01*
X140000Y131000D01*
X138000Y130000D01*
X141047Y132547D02*
X142047Y134547D01*
X141047Y136547D01*
X143047Y135547D01*
X145047Y136547D01*
X144047Y134547D01*
X145047Y132547D01*
X143047Y133547D01*
X141047Y132547D01*
X77500Y75484D02*
X75500Y79483D01*
X79500D01*
X77500Y75484D01*
Y78052D02*
X75500Y82052D01*
X79500D01*
X77500Y78052D01*
Y87295D02*
X75500Y91294D01*
X79500D01*
X77500Y87295D01*
Y89863D02*
X75500Y93863D01*
X79500D01*
X77500Y89863D01*
Y99106D02*
X75500Y103105D01*
X79500D01*
X77500Y99106D01*
Y101674D02*
X75500Y105674D01*
X79500D01*
X77500Y101674D01*
Y110916D02*
X75500Y114917D01*
X79500D01*
X77500Y110916D01*
Y113485D02*
X75500Y117485D01*
X79500D01*
X77500Y113485D01*
X71500Y84055D02*
X69500Y88055D01*
X73500D01*
X71500Y84055D01*
Y81487D02*
X69500Y85487D01*
X73500D01*
X71500Y81487D01*
Y95791D02*
X69500Y99791D01*
X73500D01*
X71500Y95791D01*
Y93223D02*
X69500Y97223D01*
X73500D01*
X71500Y93223D01*
Y107546D02*
X69500Y111546D01*
X73500D01*
X71500Y107546D01*
Y104977D02*
X69500Y108977D01*
X73500D01*
X71500Y104977D01*
Y119293D02*
X69500Y123293D01*
X73500D01*
X71500Y119293D01*
Y116725D02*
X69500Y120725D01*
X73500D01*
X71500Y116725D01*
D34*
X149268Y149634D02*
G03*
X149268Y149634I-2000J0D01*
G01*
M02*
